<svg width="793" height="217" viewBox="0 0 793 217" fill="none" xmlns="http://www.w3.org/2000/svg">
<g filter="url(#filter0_d_28_154)">
<g filter="url(#filter1_d_28_154)">
<path d="M9.6 49H59.52V67.12H29.88V133H9.6V49ZM62.79 109.24V99.16H93.99C93.67 96.92 93.07 95.04 92.19 93.52C91.39 92 90.23 90.84 88.71 90.04C87.27 89.16 85.47 88.72 83.31 88.72C80.83 88.72 78.67 89.28 76.83 90.4C75.07 91.44 73.67 93 72.63 95.08C71.59 97.08 71.07 99.56 71.07 102.52L70.83 105.4C70.83 109.16 71.39 112.2 72.51 114.52C73.71 116.84 75.27 118.52 77.19 119.56C79.19 120.6 81.35 121.12 83.67 121.12C85.91 121.12 87.87 120.84 89.55 120.28C91.31 119.72 92.83 118.92 94.11 117.88C95.39 116.76 96.47 115.44 97.35 113.92L113.55 117.88C111.71 121.24 109.51 124.16 106.95 126.64C104.39 129.04 101.23 130.92 97.47 132.28C93.79 133.56 89.27 134.2 83.91 134.2C77.27 134.2 71.59 132.96 66.87 130.48C62.23 128 58.67 124.6 56.19 120.28C53.79 115.88 52.59 110.92 52.59 105.4C52.59 104.36 52.63 103.36 52.71 102.4C52.79 101.44 52.91 100.48 53.07 99.52C53.87 94.96 55.51 90.96 57.99 87.52C60.55 84.08 63.95 81.4 68.19 79.48C72.51 77.56 77.67 76.6 83.67 76.6C90.15 76.6 95.59 77.72 99.99 79.96C104.39 82.2 107.71 85.4 109.95 89.56C112.27 93.72 113.43 98.72 113.43 104.56C113.43 105.04 113.43 105.72 113.43 106.6C113.43 107.4 113.35 108.28 113.19 109.24H62.79ZM130.493 110.68V97.12H175.133V110.68H130.493ZM166.973 77.8H184.373V133H166.973V77.8ZM124.853 77.8H142.373V133H124.853V77.8ZM192.202 112.36V96.64H217.642V112.36H192.202ZM244.363 91C244.363 96.12 245.523 100.56 247.843 104.32C250.163 108 253.203 110.8 256.963 112.72C260.803 114.64 265.003 115.6 269.563 115.6C273.563 115.6 277.083 115.08 280.123 114.04C283.163 113 285.883 111.64 288.283 109.96C290.683 108.28 292.803 106.48 294.643 104.56V126.4C291.283 129.04 287.603 131.12 283.603 132.64C279.603 134.16 274.523 134.92 268.363 134.92C261.643 134.92 255.443 133.88 249.763 131.8C244.083 129.72 239.203 126.72 235.123 122.8C231.043 118.88 227.883 114.24 225.643 108.88C223.403 103.52 222.283 97.56 222.283 91C222.283 84.44 223.403 78.48 225.643 73.12C227.883 67.76 231.043 63.12 235.123 59.2C239.203 55.28 244.083 52.28 249.763 50.2C255.443 48.12 261.643 47.08 268.363 47.08C274.523 47.08 279.603 47.84 283.603 49.36C287.603 50.88 291.283 52.96 294.643 55.6V77.44C292.803 75.52 290.683 73.72 288.283 72.04C285.883 70.28 283.163 68.92 280.123 67.96C277.083 66.92 273.563 66.4 269.563 66.4C265.003 66.4 260.803 67.36 256.963 69.28C253.203 71.2 250.163 74 247.843 77.68C245.523 81.36 244.363 85.8 244.363 91ZM302.944 77.8H341.704V92.8H302.944V77.8ZM313.624 80.2H331.024V133H313.624V80.2ZM367.385 159.4H349.265V77.8H367.385V159.4ZM412.505 105.4C412.505 111.8 411.225 117.2 408.665 121.6C406.185 126 402.945 129.32 398.945 131.56C395.025 133.8 390.785 134.92 386.225 134.92C381.425 134.92 377.265 133.72 373.745 131.32C370.305 128.84 367.665 125.4 365.825 121C363.985 116.52 363.065 111.32 363.065 105.4C363.065 99.4 363.985 94.2 365.825 89.8C367.665 85.4 370.305 82 373.745 79.6C377.265 77.12 381.425 75.88 386.225 75.88C390.785 75.88 395.025 77 398.945 79.24C402.945 81.48 406.185 84.8 408.665 89.2C411.225 93.52 412.505 98.92 412.505 105.4ZM393.425 105.4C393.425 102.52 392.825 100.08 391.625 98.08C390.425 96.08 388.825 94.56 386.825 93.52C384.825 92.48 382.625 91.96 380.225 91.96C378.145 91.96 376.105 92.48 374.105 93.52C372.185 94.48 370.585 95.96 369.305 97.96C368.025 99.96 367.385 102.44 367.385 105.4C367.385 108.36 368.025 110.84 369.305 112.84C370.585 114.84 372.185 116.36 374.105 117.4C376.105 118.36 378.145 118.84 380.225 118.84C382.625 118.84 384.825 118.32 386.825 117.28C388.825 116.24 390.425 114.72 391.625 112.72C392.825 110.72 393.425 108.28 393.425 105.4ZM420.207 105.4C420.207 99.56 421.567 94.48 424.287 90.16C427.007 85.84 430.767 82.48 435.567 80.08C440.367 77.68 445.767 76.48 451.767 76.48C457.767 76.48 463.127 77.68 467.847 80.08C472.647 82.48 476.407 85.84 479.127 90.16C481.927 94.48 483.327 99.56 483.327 105.4C483.327 111.16 481.927 116.2 479.127 120.52C476.407 124.84 472.647 128.2 467.847 130.6C463.127 133 457.767 134.2 451.767 134.2C445.767 134.2 440.367 133 435.567 130.6C430.767 128.2 427.007 124.84 424.287 120.52C421.567 116.2 420.207 111.16 420.207 105.4ZM438.807 105.4C438.807 108.28 439.407 110.76 440.607 112.84C441.807 114.84 443.367 116.4 445.287 117.52C447.207 118.64 449.367 119.2 451.767 119.2C454.087 119.2 456.207 118.64 458.127 117.52C460.127 116.4 461.687 114.84 462.807 112.84C464.007 110.76 464.607 108.28 464.607 105.4C464.607 102.52 464.007 100.04 462.807 97.96C461.687 95.88 460.127 94.28 458.127 93.16C456.207 92.04 454.087 91.48 451.767 91.48C449.367 91.48 447.207 92.04 445.287 93.16C443.367 94.28 441.807 95.88 440.607 97.96C439.407 100.04 438.807 102.52 438.807 105.4ZM550.148 93.4L494.468 137.2L495.068 117.4L550.748 73.6L550.148 93.4ZM511.988 77.8V120.28L494.468 137.2V77.8H511.988ZM550.748 73.6V133H533.348V90.52L550.748 73.6ZM503.828 49.6H515.708C515.708 50.96 516.028 52.2 516.668 53.32C517.308 54.36 518.228 55.2 519.428 55.84C520.628 56.4 521.988 56.68 523.508 56.68C525.028 56.68 526.388 56.4 527.588 55.84C528.788 55.2 529.708 54.36 530.348 53.32C530.988 52.2 531.308 50.96 531.308 49.6H543.188C543.188 52.8 542.428 55.76 540.908 58.48C539.388 61.12 537.148 63.24 534.188 64.84C531.308 66.36 527.748 67.12 523.508 67.12C519.348 67.12 515.788 66.36 512.828 64.84C509.868 63.24 507.628 61.12 506.108 58.48C504.588 55.76 503.828 52.8 503.828 49.6Z" fill="white"/>
</g>
<g filter="url(#filter2_d_28_154)">
<path d="M10.2 162H28.6V169.8H19V190H10.2V162ZM83.8478 184.44C83.8478 184.76 83.9278 185.013 84.0878 185.2C84.2745 185.387 84.5145 185.533 84.8078 185.64C85.1011 185.72 85.4078 185.76 85.7278 185.76C86.2611 185.76 86.7811 185.667 87.2878 185.48C87.7945 185.267 88.2078 184.92 88.5278 184.44C88.8478 183.96 89.0078 183.28 89.0078 182.4L89.6478 184.8C89.6478 185.973 89.3545 186.987 88.7678 187.84C88.1811 188.667 87.3811 189.307 86.3678 189.76C85.3545 190.187 84.2078 190.4 82.9278 190.4C81.5411 190.4 80.3278 190.187 79.2878 189.76C78.2478 189.307 77.4345 188.667 76.8478 187.84C76.2878 186.987 76.0078 185.973 76.0078 184.8C76.0078 183.627 76.3411 182.613 77.0078 181.76C77.6745 180.88 78.6078 180.2 79.8078 179.72C81.0345 179.24 82.4478 179 84.0478 179C84.8211 179 85.6345 179.08 86.4878 179.24C87.3411 179.373 88.1145 179.573 88.8078 179.84C89.5011 180.08 90.0078 180.36 90.3278 180.68V184.12C89.7678 183.667 89.1811 183.333 88.5678 183.12C87.9545 182.907 87.1678 182.8 86.2078 182.8C85.7545 182.8 85.3411 182.88 84.9678 183.04C84.6211 183.173 84.3411 183.36 84.1278 183.6C83.9411 183.84 83.8478 184.12 83.8478 184.44ZM80.0478 178.08L77.6878 173.04C78.9678 172.533 80.4078 172.067 82.0078 171.64C83.6345 171.213 85.2745 171 86.9278 171C88.7411 171 90.3545 171.24 91.7678 171.72C93.2078 172.2 94.3411 172.907 95.1678 173.84C95.9945 174.747 96.4078 175.867 96.4078 177.2V190H89.0078V179.12C89.0078 178.427 88.7811 177.853 88.3278 177.4C87.8745 176.92 87.1411 176.68 86.1278 176.68C85.2478 176.68 84.3945 176.773 83.5678 176.96C82.7678 177.12 82.0478 177.307 81.4078 177.52C80.7945 177.733 80.3411 177.92 80.0478 178.08ZM160.331 180.8V179.12C160.944 179.12 161.398 179 161.691 178.76C161.984 178.493 162.131 178.16 162.131 177.76C162.131 177.387 161.984 177.08 161.691 176.84C161.424 176.6 161.104 176.48 160.731 176.48C160.464 176.48 160.198 176.533 159.931 176.64C159.691 176.747 159.491 176.92 159.331 177.16C159.171 177.4 159.078 177.733 159.051 178.16H152.211C152.211 176.693 152.544 175.453 153.211 174.44C153.904 173.4 154.878 172.6 156.131 172.04C157.411 171.48 158.918 171.2 160.651 171.2C162.278 171.2 163.718 171.44 164.971 171.92C166.224 172.373 167.211 173.013 167.931 173.84C168.678 174.667 169.051 175.613 169.051 176.68C169.051 178.04 168.371 179.12 167.011 179.92C165.651 180.693 163.424 180.987 160.331 180.8ZM160.571 190.4C157.664 190.4 155.398 189.787 153.771 188.56C152.144 187.307 151.224 185.587 151.011 183.4H158.251C158.464 184.12 158.798 184.6 159.251 184.84C159.704 185.08 160.131 185.2 160.531 185.2C160.931 185.2 161.291 185.147 161.611 185.04C161.958 184.907 162.224 184.733 162.411 184.52C162.598 184.28 162.691 183.987 162.691 183.64C162.691 183.293 162.598 183.013 162.411 182.8C162.251 182.56 161.998 182.387 161.651 182.28C161.304 182.147 160.864 182.08 160.331 182.08V179.6C163.424 179.387 165.784 179.773 167.411 180.76C169.038 181.747 169.851 183.04 169.851 184.64C169.851 185.787 169.451 186.8 168.651 187.68C167.878 188.533 166.798 189.2 165.411 189.68C164.024 190.16 162.411 190.4 160.571 190.4ZM223.058 180.8C223.058 178.8 223.538 177.08 224.498 175.64C225.458 174.2 226.778 173.093 228.458 172.32C230.138 171.547 232.044 171.16 234.178 171.16C236.311 171.16 238.218 171.547 239.898 172.32C241.578 173.093 242.898 174.2 243.858 175.64C244.818 177.08 245.298 178.8 245.298 180.8C245.298 182.773 244.818 184.48 243.858 185.92C242.898 187.36 241.578 188.467 239.898 189.24C238.218 190.013 236.311 190.4 234.178 190.4C232.044 190.4 230.138 190.013 228.458 189.24C226.778 188.467 225.458 187.36 224.498 185.92C223.538 184.48 223.058 182.773 223.058 180.8ZM231.098 180.8C231.098 181.547 231.244 182.173 231.538 182.68C231.831 183.187 232.204 183.573 232.658 183.84C233.138 184.08 233.644 184.2 234.178 184.2C234.711 184.2 235.204 184.08 235.658 183.84C236.138 183.573 236.524 183.187 236.818 182.68C237.111 182.173 237.258 181.547 237.258 180.8C237.258 180.053 237.111 179.427 236.818 178.92C236.524 178.413 236.138 178.027 235.658 177.76C235.204 177.493 234.711 177.36 234.178 177.36C233.644 177.36 233.138 177.493 232.658 177.76C232.204 178.027 231.831 178.413 231.538 178.92C231.244 179.427 231.098 180.053 231.098 180.8ZM310.066 177.36L310.826 171.2C312.906 171.2 314.72 171.613 316.266 172.44C317.813 173.267 319.013 174.4 319.866 175.84C320.72 177.28 321.146 178.933 321.146 180.8C321.146 182.64 320.706 184.293 319.826 185.76C318.946 187.2 317.68 188.333 316.026 189.16C314.373 189.987 312.373 190.4 310.026 190.4C307.706 190.4 305.64 189.96 303.826 189.08C302.04 188.173 300.64 186.827 299.626 185.04C298.613 183.253 298.106 181.04 298.106 178.4L306.906 180.8C306.906 181.547 307.053 182.173 307.346 182.68C307.64 183.187 308.026 183.573 308.506 183.84C308.986 184.08 309.493 184.2 310.026 184.2C310.56 184.2 311.053 184.08 311.506 183.84C311.986 183.573 312.373 183.187 312.666 182.68C312.96 182.173 313.106 181.547 313.106 180.8C313.106 180.053 312.96 179.427 312.666 178.92C312.4 178.413 312.026 178.027 311.546 177.76C311.093 177.493 310.6 177.36 310.066 177.36ZM303.466 180.8C303.466 179.307 303.626 177.973 303.946 176.8C304.293 175.6 304.786 174.587 305.426 173.76C306.066 172.933 306.84 172.307 307.746 171.88C308.653 171.427 309.68 171.2 310.826 171.2L310.066 177.36C309.613 177.36 309.186 177.44 308.786 177.6C308.413 177.733 308.08 177.947 307.786 178.24C307.52 178.533 307.306 178.893 307.146 179.32C306.986 179.747 306.906 180.24 306.906 180.8H303.466ZM298.106 178.4C298.106 175.893 298.306 173.693 298.706 171.8C299.133 169.88 299.893 168.227 300.986 166.84C302.106 165.453 303.693 164.293 305.746 163.36C307.56 162.533 308.973 161.813 309.986 161.2C311.026 160.56 311.64 159.76 311.826 158.8H319.226C319.093 159.973 318.666 161.12 317.946 162.24C317.226 163.36 316.28 164.373 315.106 165.28C313.96 166.187 312.653 166.947 311.186 167.56C309.586 168.227 308.32 169 307.386 169.88C306.48 170.733 305.84 171.707 305.466 172.8C305.093 173.867 304.906 175.067 304.906 176.4L306.506 180.92L298.106 178.4ZM396.086 171.6V190H388.686V178.6H383.486V183.6C383.486 185.04 383.192 186.24 382.606 187.2C382.019 188.133 380.979 188.84 379.486 189.32C377.992 189.773 375.886 190 373.166 190V183.08C373.966 183.08 374.646 183 375.206 182.84C375.792 182.653 376.086 182.107 376.086 181.2V171.6H396.086ZM450.689 180.8C450.689 178.8 451.169 177.08 452.129 175.64C453.089 174.2 454.409 173.093 456.089 172.32C457.769 171.547 459.676 171.16 461.809 171.16C463.942 171.16 465.849 171.547 467.529 172.32C469.209 173.093 470.529 174.2 471.489 175.64C472.449 177.08 472.929 178.8 472.929 180.8C472.929 182.773 472.449 184.48 471.489 185.92C470.529 187.36 469.209 188.467 467.529 189.24C465.849 190.013 463.942 190.4 461.809 190.4C459.676 190.4 457.769 190.013 456.089 189.24C454.409 188.467 453.089 187.36 452.129 185.92C451.169 184.48 450.689 182.773 450.689 180.8ZM458.729 180.8C458.729 181.547 458.876 182.173 459.169 182.68C459.462 183.187 459.836 183.573 460.289 183.84C460.769 184.08 461.276 184.2 461.809 184.2C462.342 184.2 462.836 184.08 463.289 183.84C463.769 183.573 464.156 183.187 464.449 182.68C464.742 182.173 464.889 181.547 464.889 180.8C464.889 180.053 464.742 179.427 464.449 178.92C464.156 178.413 463.769 178.027 463.289 177.76C462.836 177.493 462.342 177.36 461.809 177.36C461.276 177.36 460.769 177.493 460.289 177.76C459.836 178.027 459.462 178.413 459.169 178.92C458.876 179.427 458.729 180.053 458.729 180.8ZM526.338 171.6H533.738V190H526.338V171.6ZM540.378 171.6H549.538L541.738 179.2L550.338 190H541.338L532.578 179.2L540.378 171.6Z" fill="white"/>
</g>
<g filter="url(#filter3_d_28_154)">
<path fill-rule="evenodd" clip-rule="evenodd" d="M584.119 155.187H710.112V196.989H584.119V155.187ZM574 206H720.374V146.301H574V206Z" fill="white"/>
<path fill-rule="evenodd" clip-rule="evenodd" d="M644.693 134.536C646.126 133.693 648.395 131.207 649.787 129.999C650.682 129.222 651.464 128.528 652.353 127.747C652.752 127.396 654.812 125.756 654.812 125.4V81.2199H773.964V194.736H733.201C733.874 195.618 742.534 202.819 742.759 203.24C743.129 203.93 742.52 202.603 742.829 203.485C742.858 203.568 742.548 203.77 743.733 203.754C744.404 203.746 745.073 203.747 745.743 203.747H784.225V72.3338H644.693V134.536Z" fill="white"/>
<path fill-rule="evenodd" clip-rule="evenodd" d="M643.267 64.8244C643.575 64.7265 643.469 64.7375 643.555 64.7013C643.58 64.6906 643.623 64.6732 643.651 64.6612L644.408 64.1987C644.996 63.6937 645.912 63.3095 646.543 62.82L649.063 61.2778C649.275 61.1659 649.117 61.2757 649.323 61.1309L650.935 60.043C650.958 60.0268 650.993 60.0058 651.016 59.9894L651.459 59.6276C651.536 59.5641 651.648 59.4776 651.688 59.4528L651.867 59.3598C651.894 59.3455 651.933 59.3306 651.96 59.3166C651.988 59.3025 652.026 59.2872 652.053 59.2729C652.08 59.2588 652.117 59.2416 652.143 59.2269L654.72 57.61C655.572 57.161 656.32 56.4746 657.184 56.0189L659.27 54.7213C659.295 54.7069 659.33 54.6869 659.356 54.6717L668.883 48.7699C668.909 48.7553 668.946 48.7381 668.973 48.724L675.241 44.7166C675.268 44.7023 675.307 44.6874 675.334 44.6734L676.009 44.2643C676.035 44.2497 676.072 44.2325 676.099 44.2184C676.126 44.2041 676.165 44.1888 676.192 44.1747L677.418 43.3745C677.443 43.3592 677.478 43.3389 677.502 43.3228L678.397 42.7317C678.744 42.4904 678.45 42.6755 678.683 42.4826L679.947 41.7153C679.974 41.701 680.013 41.6856 680.04 41.6716L683.36 39.5811C683.435 39.5392 683.563 39.4516 683.604 39.4196C684.276 38.8987 685.16 38.5173 685.81 37.9769C685.886 37.9129 685.996 37.8266 686.037 37.801L693.007 33.4084C693.048 33.3766 693.176 33.289 693.25 33.247L696.473 31.3209C696.682 31.2029 696.742 31.1214 696.926 30.9683L699.241 29.4959C699.267 29.4813 699.304 29.4642 699.331 29.45L708.22 23.8639C708.429 23.7465 708.381 23.8031 708.588 23.6864C708.875 23.524 708.925 23.4158 709.112 23.2708L711.805 21.6306C711.84 21.6098 711.931 21.5424 711.965 21.5206C712.135 21.4104 712.068 21.4406 712.21 21.3608C712.389 21.2605 712.327 21.3122 712.487 21.228C712.699 21.1161 712.541 21.2257 712.747 21.0811L713.441 20.5639C713.772 20.3979 713.964 20.3561 714.103 20.0187H714.673C714.787 20.2962 714.766 20.2691 715.05 20.4379C715.257 20.5608 715.145 20.4688 715.334 20.5639L716.11 21.1349C716.135 21.1503 716.171 21.1686 716.197 21.1832C716.223 21.198 716.262 21.2138 716.289 21.228L717.512 21.9063C717.609 21.9669 717.729 22.0786 717.808 22.1463L718.646 22.6619C718.651 22.6649 718.961 22.8793 718.966 22.8822L719.142 22.9777C719.169 22.992 719.207 23.0073 719.235 23.0214C719.262 23.0354 719.301 23.0503 719.328 23.0646C719.355 23.0787 719.393 23.0946 719.42 23.1094C719.445 23.124 719.482 23.1423 719.507 23.1578L720.279 23.7311C720.439 23.8152 720.377 23.7636 720.556 23.8639L725.15 26.8382C725.555 27.1218 724.858 26.6805 725.319 26.9403L726.01 27.3341C726.035 27.3496 726.067 27.3729 726.092 27.3878C726.117 27.4029 726.152 27.423 726.178 27.4375C726.204 27.452 726.241 27.4692 726.268 27.4833C726.295 27.4976 726.334 27.5129 726.361 27.527C726.982 27.8461 727.08 28.0763 727.809 28.383L728.543 28.7398C728.569 28.7546 728.605 28.7733 728.629 28.7889L730.001 29.7121C730.025 29.7275 730.058 29.7508 730.083 29.7658C730.108 29.7809 730.143 29.8009 730.169 29.8154L732.914 31.6601C732.945 31.6841 733.036 31.7517 733.07 31.773L733.25 31.8658C733.415 31.9513 733.341 31.8908 733.529 31.9957C733.603 32.0366 733.733 32.1255 733.773 32.1569L737.243 34.367C737.27 34.3812 737.308 34.3966 737.335 34.4106L737.52 34.4986C737.981 34.7584 737.285 34.3172 737.689 34.6007L739.238 35.6185C740.004 36.0223 740.661 36.6474 741.424 37.078L749.406 42.0841C749.623 42.2052 749.56 42.1373 749.777 42.2584L751.588 43.4218C751.615 43.4359 751.654 43.4508 751.681 43.465C751.708 43.4792 751.747 43.495 751.773 43.5098L752.372 43.9845C752.579 44.1293 752.42 44.0197 752.633 44.1315L757.391 47.0868C757.57 47.1871 757.507 47.1356 757.667 47.2197L762.656 50.4737C762.909 50.6068 763.057 50.8509 763.607 51.1402L765.291 52.1645C766.026 52.5615 765.605 52.1842 766.408 52.8112L771.591 56.0189C771.618 56.0331 771.657 56.0484 771.684 56.0625L772.729 56.7722C772.756 56.7864 772.795 56.8013 772.822 56.8154L773.587 57.2704C773.614 57.2847 773.652 57.3 773.68 57.314C773.707 57.3281 773.746 57.343 773.773 57.3572L776.632 59.2269C776.811 59.3272 776.748 59.2757 776.908 59.3598L778.718 60.5245C778.745 60.5387 778.783 60.5541 778.81 60.5681C778.838 60.5822 778.877 60.5971 778.904 60.6113L779.855 61.2778C779.882 61.2921 779.921 61.307 779.948 61.321L780.713 61.776C780.74 61.7903 780.779 61.8056 780.806 61.8196C780.833 61.8337 780.872 61.8486 780.899 61.8629L783.073 63.2076C783.114 63.2333 783.224 63.3195 783.301 63.3836L784.938 64.5741C785.14 63.8111 784.593 62.3799 784.404 61.5383L782.887 55.3617C782.595 54.2497 782.391 53.1816 782.116 52.1588C781.832 51.1031 781.613 50.1214 781.364 49.0638C781.256 48.6008 781.106 47.9501 780.986 47.5191C780.831 46.9639 780.589 46.8578 780.142 46.6332L777.193 44.7166C777.166 44.7023 777.128 44.6874 777.1 44.6734C777.073 44.6593 777.034 44.644 777.007 44.6297C776.981 44.6156 776.943 44.5984 776.917 44.5837L772.926 42.0807C772.901 42.0662 772.866 42.0461 772.84 42.0311L772.345 41.7153C772.181 41.6287 772.252 41.6877 772.067 41.5836L767.121 38.4176C767.094 38.4035 767.055 38.3886 767.028 38.3744C767.001 38.3602 766.963 38.3444 766.936 38.3296L765.476 37.3589C765.452 37.3435 765.42 37.3202 765.395 37.3051C765.37 37.2901 765.335 37.27 765.309 37.2555C765.283 37.241 765.245 37.2237 765.219 37.2097C765.191 37.1954 765.153 37.18 765.126 37.166L762.341 35.3564C762.316 35.3409 762.284 35.3176 762.259 35.3027L761.99 35.1635C761.963 35.1495 761.924 35.1346 761.897 35.1203L760.669 34.321C760.643 34.3065 760.608 34.2865 760.583 34.2714L759.995 33.912C759.967 33.8979 759.929 33.883 759.902 33.8688L757.097 31.9506C757.07 31.9364 757.031 31.9215 757.004 31.9074C756.977 31.8934 756.938 31.878 756.911 31.8638L752.06 28.7398C751.914 28.6558 751.846 28.6356 751.693 28.5611L750.377 27.8397C750.348 27.8151 750.078 27.6236 750.063 27.615L747.882 26.2754C747.855 26.2614 747.817 26.2461 747.79 26.2318L745.98 25.0675C745.94 25.047 745.832 25.0028 745.792 24.9822L745.316 24.6495C745.236 24.5817 745.116 24.4701 745.019 24.4094L744.747 24.2729C744.72 24.259 744.681 24.2435 744.654 24.2293L744.478 24.1338C744.453 24.1188 744.421 24.0955 744.396 24.0801L739.805 21.228C739.778 21.2138 739.74 21.198 739.714 21.1832L737.437 19.6778C737.348 19.6276 737.275 19.5644 737.114 19.4616L734.861 18.0608C734.834 18.0465 734.795 18.0312 734.768 18.0171L730.21 15.0105C730.179 14.9865 730.088 14.9189 730.054 14.8976L727.599 13.4235C727.573 13.4089 727.537 13.3907 727.512 13.3752L726.139 12.4528C726.115 12.4374 726.082 12.4141 726.058 12.3992L717.524 7.00146C717.497 6.98741 717.459 6.97209 717.432 6.95783C717.405 6.94367 717.368 6.92654 717.341 6.91185L714.677 5.24671C714.391 5.05407 714.547 5.34601 714.388 5H714.103C714.013 5.21776 714.045 5.12548 713.951 5.24245C713.921 5.28045 713.751 5.45936 713.685 5.50971L712.202 6.45962C712.175 6.47388 712.136 6.48878 712.108 6.50283C712.081 6.51688 712.043 6.5322 712.016 6.54646L711.344 6.95783C711.317 6.97209 711.278 6.98741 711.251 7.00146L710.542 7.505C710 7.92562 709.221 8.17382 708.687 8.62946L707.849 9.14512C707.824 9.16013 707.791 9.18344 707.767 9.19887L703.995 11.6435C703.898 11.7041 703.778 11.8158 703.698 11.8835C703.619 11.9513 703.499 12.0629 703.402 12.1236L701.563 13.2621C701.531 13.2862 701.44 13.3538 701.406 13.3752L700.46 13.9206C700.433 13.9352 700.396 13.9525 700.369 13.9665C700.342 13.9808 700.304 13.9961 700.276 14.0102L698.632 15.0688C698.607 15.0843 698.575 15.1076 698.55 15.1226L698.374 15.2181C698.347 15.2323 698.308 15.2477 698.281 15.2617L695.415 17.125C695.389 17.1401 695.354 17.1602 695.329 17.1746C695.302 17.1893 695.265 17.2064 695.238 17.2206C695.211 17.2348 695.173 17.2502 695.146 17.2642L693.825 18.1067C693.799 18.1212 693.764 18.1412 693.739 18.1563L693.333 18.4262C693.307 18.4408 693.27 18.458 693.243 18.4721C693.216 18.4864 693.178 18.5017 693.15 18.5158L690.11 20.4771C690.083 20.4914 690.044 20.5063 690.017 20.5203L689.429 20.8797C689.403 20.8948 689.368 20.9149 689.342 20.9293L684.298 24.1338C684.272 24.1488 684.237 24.1689 684.212 24.1834L682.891 25.0259C682.863 25.04 682.825 25.0553 682.798 25.0696C682.771 25.0836 682.734 25.1008 682.708 25.1154L682.216 25.4349C682.007 25.5523 682.055 25.4957 681.848 25.6126C681.831 25.6226 681.566 25.8096 681.534 25.8368C680.688 26.5403 679.082 27.2677 678.397 27.8387L677.319 28.5188C677.291 28.5323 677.255 28.5498 677.227 28.5633L673.237 31.0669C673.211 31.0816 673.174 31.0987 673.147 31.1129C673.12 31.1272 673.081 31.1425 673.054 31.1565L668.016 34.367C667.989 34.3812 667.95 34.3966 667.923 34.4106L665.743 35.7502C665.08 36.124 665.219 36.1942 664.79 36.4151L661.471 38.5071C661.445 38.5216 661.41 38.5417 661.385 38.5568C661.36 38.5717 661.328 38.595 661.304 38.6104C661.228 38.6589 661.073 38.7726 661.066 38.777L651.49 44.7613C651.474 44.7708 651.206 44.9581 651.174 44.9844L650.007 45.8367C649.796 45.9532 649.845 45.8964 649.638 46.0129C649.621 46.0223 649.355 46.2106 649.323 46.2372L648.775 46.6325C648.158 46.941 648.059 47.204 647.883 47.8517C647.729 48.4218 647.619 48.7903 647.458 49.3552C647.145 50.4507 646.913 51.3957 646.603 52.4841L644.093 61.6701C643.824 62.6092 643.36 63.8499 643.267 64.8244Z" fill="white"/>
<path fill-rule="evenodd" clip-rule="evenodd" d="M599.37 117.265L599.365 105.996C599.385 105.792 599.372 105.856 599.43 105.678L599.512 105.5C599.754 104.906 599.523 104.328 599.753 103.709C599.764 103.679 599.784 103.65 599.796 103.621C599.807 103.592 599.826 103.562 599.837 103.533C599.849 103.502 599.865 103.472 599.875 103.441L600.595 101.194C600.61 101.169 600.629 101.137 600.644 101.112C600.658 101.087 600.678 101.055 600.693 101.03L600.845 100.788C601.487 99.7969 601.125 100.118 602.078 99.3678L603.073 98.4893C603.101 98.4755 603.14 98.4608 603.167 98.4467L604.727 97.5639C605.33 97.2458 605.919 96.8993 606.604 96.7088L607.022 96.5755C607.056 96.565 607.091 96.5501 607.124 96.54L610.481 95.8584C611.677 95.7669 613.654 95.7093 614.898 95.869C615.541 95.9515 615.445 96.0761 616.188 96.1135L619.8 97.0719C619.829 97.0847 619.866 97.1009 619.895 97.1137L621.084 97.6959C621.122 97.714 621.235 97.7621 621.272 97.7812L622.946 99.0651C623.349 99.5031 623.816 99.7254 624.193 100.223L624.304 100.375C624.32 100.399 624.34 100.431 624.356 100.455C624.372 100.479 624.39 100.512 624.406 100.536L624.609 100.859C624.624 100.883 624.646 100.914 624.662 100.937C624.708 101.007 624.78 101.108 624.822 101.172L625.121 101.661C625.136 101.686 625.155 101.718 625.17 101.743L625.95 103.686C625.962 103.716 625.977 103.747 625.989 103.777C626.199 104.291 626.076 104.788 626.264 105.288L626.455 106.372C626.439 107.777 626.679 116.598 626.307 117.515C626.012 118.243 626.297 118.661 625.775 119.926C625.323 121.02 625.412 121.343 624.716 122.501C624.702 122.526 624.68 122.556 624.664 122.581L623.314 124.148C623.294 124.167 623.268 124.197 623.249 124.217L621.787 125.686C621.582 125.87 621.773 125.721 621.553 125.856L618.206 127.297C618.175 127.309 618.138 127.323 618.106 127.335C618.075 127.346 618.039 127.362 618.008 127.373L615.843 127.725C615.6 127.786 615.611 127.777 615.343 127.787C614.073 127.835 612.634 127.774 611.342 127.778C610.182 127.782 609.631 127.634 608.649 127.515L606.776 127.031C606.74 127.021 606.7 127.015 606.664 127.004C606.629 126.994 606.589 126.986 606.556 126.975L604.975 126.36C604.68 126.216 604.973 126.404 604.742 126.189C604.721 126.17 604.7 126.138 604.681 126.118L601.566 123.346C601.547 123.326 601.518 123.3 601.499 123.279C601.16 122.904 601.376 123.317 601.165 122.697L600.861 122.088C600.463 121.625 600.677 122.161 600.506 121.523L599.928 119.403C599.753 118.538 599.849 119.456 599.684 118.741C599.616 118.449 599.683 118.167 599.663 117.884C599.591 116.891 599.548 117.718 599.37 117.265ZM602.79 84.0984L602.596 83.5186C602.58 83.4955 602.553 83.4674 602.536 83.4454C602.339 83.1878 602.293 83.1615 602.079 82.9711L600.988 81.5507C600.966 81.5139 600.552 80.806 600.363 80.097L599.751 78.132C599.739 78.1017 599.723 78.0717 599.713 78.0401L599.359 75.7223C599.326 73.6003 599.187 65.2495 599.512 64.449C599.687 64.0197 599.569 63.3237 599.683 62.8467C599.852 62.1391 599.751 63.0446 599.928 62.1859C600.043 61.6271 600.058 61.1579 600.274 60.7371C601.118 59.0938 601.227 59.2202 602.462 57.9026C602.62 57.7333 602.546 57.7883 602.742 57.6477L604.701 56.49C604.728 56.4758 604.763 56.4564 604.79 56.4426L611.402 54.7392C611.958 54.6006 614.706 54.5991 615.304 54.7117C616.116 54.8644 615.056 54.798 616.06 54.9239L617.253 55.1278C617.514 55.1909 617.499 55.1606 617.74 55.2017L619.234 55.6412C619.265 55.653 619.299 55.671 619.33 55.6824C620.126 55.9804 620.128 55.9059 620.823 56.3734L623.324 57.9322C624.1 58.6339 624.017 58.8555 624.455 59.3173L625.081 60.2688C625.401 60.7405 625.509 61.2275 625.699 61.7294L625.897 62.4313C625.905 62.4683 625.909 62.5016 625.918 62.5374L626.351 64.2856C626.574 64.874 626.511 76.0736 626.421 76.439C626.329 76.8174 626.352 76.6027 626.307 76.7143C626.069 77.3023 626.277 77.4927 625.918 78.6256L624.179 82.3548C623.902 82.8797 623.422 83.1253 623.181 83.606C623.083 83.8003 623.194 83.7011 623.016 83.962C622.716 84.4015 622.223 84.2789 621.842 84.6832L618.797 86.3894C618.218 86.6427 617.444 86.6909 616.902 86.853L615.477 86.9782C613.913 86.9661 610.21 87.2045 608.817 86.8162L607.527 86.572C607.512 86.5665 607.227 86.457 607.128 86.4217L604.697 85.3032C604.66 85.2839 604.559 85.2253 604.524 85.2042L604.001 84.7878C603.981 84.769 603.953 84.7409 603.933 84.7217L603.269 84.179C602.977 84.0712 603.18 84.106 602.79 84.0984ZM601.223 90.982V91.2323C600.666 91.2858 600.439 91.6444 599.995 91.906C599.257 92.3399 599.061 92.6081 598.912 92.7077L597.291 94.0378C596.905 94.456 596.363 94.7835 596.122 95.2637C596.055 95.3966 596.19 95.4021 595.666 95.8647C595.586 95.9355 595.459 96.0364 595.387 96.12C595.368 96.141 595.345 96.1721 595.328 96.194L594.479 97.5754C594.462 97.5986 594.441 97.63 594.424 97.6523C594.297 97.8179 594.404 97.6617 594.232 97.86C593.809 98.3491 594.06 98.4847 593.768 99.0792L592.653 101.855C592.554 102.514 592.531 103.719 592.343 104.21C592.183 104.626 592.119 116.847 592.25 117.634C592.396 118.51 592.399 117.204 592.528 119.518C592.552 119.947 592.609 120.017 592.653 120.409C592.673 120.585 592.662 120.693 592.704 120.865C592.712 120.9 592.723 120.931 592.734 120.965L592.994 121.863C593.003 121.897 593.011 121.93 593.021 121.963L593.801 123.657C593.878 123.847 593.873 123.893 593.93 124.044C594.171 124.69 593.75 123.666 594.003 124.23L595.759 126.944C595.833 127.051 595.824 127.063 595.907 127.189L597.161 128.716C597.343 128.888 597.123 128.667 597.293 128.85L598.13 129.618C598.423 129.808 598.18 129.605 598.447 129.84L598.94 130.408C599.319 130.742 599.64 130.751 599.984 131.118C600.011 131.146 600.082 131.231 600.111 131.257L601.133 131.987C601.196 132.022 601.249 132.045 601.315 132.077C601.415 132.126 601.604 132.209 601.692 132.246L603.36 132.91C603.391 132.922 603.428 132.936 603.459 132.948C603.491 132.959 603.528 132.972 603.56 132.984L607.107 133.875C608.549 134.277 615.341 134.022 617.476 134.04C617.963 134.044 618.11 134.066 618.512 133.949C618.927 133.827 618.239 133.933 618.927 133.813C619.191 133.766 619.352 133.8 619.606 133.783L620.685 133.479C620.717 133.467 620.753 133.452 620.785 133.441C620.817 133.43 620.853 133.416 620.886 133.405L621.451 133.276C621.492 133.268 621.531 133.264 621.57 133.255C621.609 133.246 621.647 133.24 621.684 133.23L622.558 132.871C622.59 132.859 622.628 132.846 622.659 132.835C622.692 132.823 622.73 132.812 622.762 132.8L626.42 130.63C626.443 130.614 626.478 130.593 626.502 130.577L628.877 128.532C629.244 128.129 629.133 127.928 629.585 127.527C629.663 127.457 629.789 127.353 629.86 127.268L630.275 126.631C630.381 126.471 630.413 126.427 630.532 126.231C630.823 125.754 630.342 126.553 630.63 126.066C630.644 126.041 630.664 126.009 630.678 125.984C630.693 125.959 630.712 125.927 630.727 125.901L632.4 122.49L633.296 119.022C633.34 118.581 633.421 104.045 633.263 103.397C633.172 103.027 633.19 103.225 633.149 103.122L632.994 102.131C632.905 101.534 632.809 101.761 632.709 101.255C632.654 100.976 632.642 100.682 632.552 100.392L630.396 96.6529C630.381 96.6285 630.363 96.5952 630.347 96.5711L630.019 96.1082C630.003 96.0848 629.983 96.0519 629.967 96.0287L629.176 95.2211C629.089 95.123 629.034 95.0399 628.935 94.9326L626.54 92.9052C626.517 92.889 626.482 92.8679 626.459 92.8513L625.447 92.1126C624.596 91.6897 625.069 91.5002 624.169 91.4826V90.982C624.568 90.9742 624.353 91.0031 624.647 90.9011C625.485 90.6104 626.52 89.5596 626.786 89.3997C626.907 89.3269 626.894 89.3575 627.06 89.2653C627.293 89.1364 627.477 88.9789 627.653 88.7845L627.956 88.4247C627.975 88.4046 628.001 88.3758 628.02 88.3562L629.114 87.1887C629.132 87.1679 629.157 87.1385 629.176 87.118L630.496 85.3986C630.509 85.3707 630.524 85.3374 630.537 85.3097C630.55 85.2822 630.566 85.2492 630.58 85.2222C630.594 85.1952 630.61 85.1624 630.624 85.1361C630.638 85.1098 630.656 85.077 630.67 85.0513C630.69 85.0172 630.747 84.9199 630.769 84.8879C631.164 84.3115 631.391 84.1117 631.658 83.4154C631.67 83.3846 631.68 83.3511 631.692 83.3199L631.957 82.6771C631.969 82.6575 632.048 82.5356 632.059 82.5159L633.018 78.9775C633.107 78.393 633.307 78.5427 633.296 77.5949L633.291 64.6993C633.291 64.2245 633.358 62.9831 633.263 62.5965L633.007 61.3195C632.981 61.0076 633.038 61.3649 632.978 61.0941C632.89 60.6976 632.928 60.9525 632.869 60.8145C632.857 60.7861 632.837 60.7563 632.825 60.7282C632.812 60.6999 632.794 60.6695 632.782 60.6407L632.327 59.1625C632.252 58.9559 632.282 58.9806 632.194 58.7787L631.573 57.6971C631.559 57.6719 631.538 57.6406 631.524 57.6151C631.51 57.5892 631.491 57.5576 631.477 57.5312L631.244 56.9851C631.231 56.9569 631.216 56.924 631.203 56.8962L628.019 53.309C627.988 53.2845 627.898 53.2157 627.866 53.1927L626.679 52.2328C626.302 51.8296 625.862 51.6865 625.348 51.3993L624.711 50.9571C624.687 50.9413 624.653 50.9197 624.629 50.9044L624.113 50.6058C623.765 50.4232 624.296 50.6899 623.931 50.5155L621.43 49.4579C621.217 49.3988 621.184 49.4004 620.993 49.3411L619.504 48.8959C619.467 48.8871 619.43 48.8782 619.393 48.8686C619.357 48.8594 619.321 48.8469 619.286 48.837L617.611 48.5558C616.454 48.517 616.217 48.3035 615.486 48.2947C614.223 48.2793 612.028 48.1085 610.815 48.4672L608.45 48.6427C608.072 48.6834 607.754 48.6525 607.413 48.7333C607.377 48.7418 607.343 48.757 607.308 48.7667C607.274 48.7761 607.241 48.7938 607.208 48.8037L607.001 48.8727C606.688 48.9459 606.664 48.9031 606.371 48.9448L603.887 49.5172C603.853 49.5271 603.816 49.54 603.783 49.5507C603.75 49.5611 603.714 49.5758 603.681 49.5867C603.649 49.5977 603.613 49.6128 603.581 49.6241C603.449 49.6707 603.262 49.7392 603.177 49.7694C602.998 49.8329 603.153 49.7789 602.974 49.8415L601.225 50.5591C601.198 50.5728 601.162 50.5915 601.136 50.6056L600.963 50.7043C600.938 50.7189 600.904 50.7403 600.878 50.7551L596.949 53.5625C596.762 53.7255 596.557 53.8834 596.381 54.0645L596.194 54.2764C596.176 54.2966 596.152 54.3275 596.132 54.3471L593.34 58.5281C593.262 58.7088 593.299 58.6485 593.238 58.8145L592.973 59.5825C592.927 59.7905 592.959 59.7846 592.889 60.0097L592.736 60.3758C592.461 61.1958 592.735 62.2133 592.386 63.0723C592.036 63.9338 592.244 71.5855 592.244 72.9595C592.244 74.0989 592.15 76.8207 592.429 77.5522C592.716 78.3027 592.539 79.219 592.683 80.0833L593.217 81.7416C593.23 81.7697 593.244 81.8032 593.258 81.8312L593.871 83.2948C593.877 83.319 593.998 83.6818 593.999 83.6833L594.913 85.1338C595.162 85.5242 595.194 85.8081 595.59 86.1661C596.064 86.5949 596.105 87.0677 596.595 87.4116L598.94 89.607C599.324 89.9446 598.944 89.6463 599.274 89.8149L600.722 90.7959C601.065 91.0004 600.511 90.9136 601.223 90.982Z" fill="white"/>
<path fill-rule="evenodd" clip-rule="evenodd" d="M574.143 52.3088V132.784H583.407V48.9296L583.042 48.9847C583.011 48.9926 582.966 49.0044 582.933 49.014L582.528 49.1587C582.378 49.2124 582.354 49.2164 582.223 49.2665L579.658 50.2681C579.627 50.2799 579.589 50.2941 579.559 50.3064L577.236 51.271C575.952 51.8088 576.796 51.0133 575.409 51.9191C575.273 52.0082 575.435 51.9236 575.151 52.0678C575.124 52.0817 575.087 52.0991 575.059 52.1122C575.03 52.1253 574.994 52.1424 574.965 52.1546C574.935 52.1669 574.899 52.1836 574.868 52.1947C574.746 52.2376 574.899 52.2246 574.542 52.2841C574.366 52.3135 574.322 52.3088 574.143 52.3088Z" fill="white"/>
</g>
</g>
<defs>
<filter id="filter0_d_28_154" x="1.60001" y="0" width="791.382" height="217" filterUnits="userSpaceOnUse" color-interpolation-filters="sRGB">
<feFlood flood-opacity="0" result="BackgroundImageFix"/>
<feColorMatrix in="SourceAlpha" type="matrix" values="0 0 0 0 0 0 0 0 0 0 0 0 0 0 0 0 0 0 127 0" result="hardAlpha"/>
<feOffset dy="3"/>
<feGaussianBlur stdDeviation="4"/>
<feComposite in2="hardAlpha" operator="out"/>
<feColorMatrix type="matrix" values="0 0 0 0 0 0 0 0 0 0 0 0 0 0 0 0 0 0 0.25 0"/>
<feBlend mode="normal" in2="BackgroundImageFix" result="effect1_dropShadow_28_154"/>
<feBlend mode="normal" in="SourceGraphic" in2="effect1_dropShadow_28_154" result="shape"/>
</filter>
<filter id="filter1_d_28_154" x="5.60001" y="47.08" width="549.148" height="120.32" filterUnits="userSpaceOnUse" color-interpolation-filters="sRGB">
<feFlood flood-opacity="0" result="BackgroundImageFix"/>
<feColorMatrix in="SourceAlpha" type="matrix" values="0 0 0 0 0 0 0 0 0 0 0 0 0 0 0 0 0 0 127 0" result="hardAlpha"/>
<feOffset dy="4"/>
<feGaussianBlur stdDeviation="2"/>
<feComposite in2="hardAlpha" operator="out"/>
<feColorMatrix type="matrix" values="0 0 0 0 0 0 0 0 0 0 0 0 0 0 0 0 0 0 0.25 0"/>
<feBlend mode="normal" in2="BackgroundImageFix" result="effect1_dropShadow_28_154"/>
<feBlend mode="normal" in="SourceGraphic" in2="effect1_dropShadow_28_154" result="shape"/>
</filter>
<filter id="filter2_d_28_154" x="6.20001" y="158.8" width="548.138" height="39.6" filterUnits="userSpaceOnUse" color-interpolation-filters="sRGB">
<feFlood flood-opacity="0" result="BackgroundImageFix"/>
<feColorMatrix in="SourceAlpha" type="matrix" values="0 0 0 0 0 0 0 0 0 0 0 0 0 0 0 0 0 0 127 0" result="hardAlpha"/>
<feOffset dy="4"/>
<feGaussianBlur stdDeviation="2"/>
<feComposite in2="hardAlpha" operator="out"/>
<feColorMatrix type="matrix" values="0 0 0 0 0 0 0 0 0 0 0 0 0 0 0 0 0 0 0.25 0"/>
<feBlend mode="normal" in2="BackgroundImageFix" result="effect1_dropShadow_28_154"/>
<feBlend mode="normal" in="SourceGraphic" in2="effect1_dropShadow_28_154" result="shape"/>
</filter>
<filter id="filter3_d_28_154" x="574" y="5" width="210.982" height="201.5" filterUnits="userSpaceOnUse" color-interpolation-filters="sRGB">
<feFlood flood-opacity="0" result="BackgroundImageFix"/>
<feColorMatrix in="SourceAlpha" type="matrix" values="0 0 0 0 0 0 0 0 0 0 0 0 0 0 0 0 0 0 127 0" result="hardAlpha"/>
<feOffset dy="0.5"/>
<feComposite in2="hardAlpha" operator="out"/>
<feColorMatrix type="matrix" values="0 0 0 0 1 0 0 0 0 1 0 0 0 0 1 0 0 0 1 0"/>
<feBlend mode="normal" in2="BackgroundImageFix" result="effect1_dropShadow_28_154"/>
<feBlend mode="normal" in="SourceGraphic" in2="effect1_dropShadow_28_154" result="shape"/>
</filter>
</defs>
</svg>
