<svg width="793" height="224" viewBox="0 0 793 224" fill="none" xmlns="http://www.w3.org/2000/svg">
<g filter="url(#filter0_d_28_154)">
<g filter="url(#filter1_d_28_154)">
<path d="M9.6 49H59.52V67.12H29.88V133H9.6V49ZM62.79 109.24V99.16H93.99C93.67 96.92 93.07 95.04 92.19 93.52C91.39 92 90.23 90.84 88.71 90.04C87.27 89.16 85.47 88.72 83.31 88.72C80.83 88.72 78.67 89.28 76.83 90.4C75.07 91.44 73.67 93 72.63 95.08C71.59 97.08 71.07 99.56 71.07 102.52L70.83 105.4C70.83 109.16 71.39 112.2 72.51 114.52C73.71 116.84 75.27 118.52 77.19 119.56C79.19 120.6 81.35 121.12 83.67 121.12C85.91 121.12 87.87 120.84 89.55 120.28C91.31 119.72 92.83 118.92 94.11 117.88C95.39 116.76 96.47 115.44 97.35 113.92L113.55 117.88C111.71 121.24 109.51 124.16 106.95 126.64C104.39 129.04 101.23 130.92 97.47 132.28C93.79 133.56 89.27 134.2 83.91 134.2C77.27 134.2 71.59 132.96 66.87 130.48C62.23 128 58.67 124.6 56.19 120.28C53.79 115.88 52.59 110.92 52.59 105.4C52.59 104.36 52.63 103.36 52.71 102.4C52.79 101.44 52.91 100.48 53.07 99.52C53.87 94.96 55.51 90.96 57.99 87.52C60.55 84.08 63.95 81.4 68.19 79.48C72.51 77.56 77.67 76.6 83.67 76.6C90.15 76.6 95.59 77.72 99.99 79.96C104.39 82.2 107.71 85.4 109.95 89.56C112.27 93.72 113.43 98.72 113.43 104.56C113.43 105.04 113.43 105.72 113.43 106.6C113.43 107.4 113.35 108.28 113.19 109.24H62.79ZM130.493 110.68V97.12H175.133V110.68H130.493ZM166.973 77.8H184.373V133H166.973V77.8ZM124.853 77.8H142.373V133H124.853V77.8ZM192.202 112.36V96.64H217.642V112.36H192.202ZM244.363 91C244.363 96.12 245.523 100.56 247.843 104.32C250.163 108 253.203 110.8 256.963 112.72C260.803 114.64 265.003 115.6 269.563 115.6C273.563 115.6 277.083 115.08 280.123 114.04C283.163 113 285.883 111.64 288.283 109.96C290.683 108.28 292.803 106.48 294.643 104.56V126.4C291.283 129.04 287.603 131.12 283.603 132.64C279.603 134.16 274.523 134.92 268.363 134.92C261.643 134.92 255.443 133.88 249.763 131.8C244.083 129.72 239.203 126.72 235.123 122.8C231.043 118.88 227.883 114.24 225.643 108.88C223.403 103.52 222.283 97.56 222.283 91C222.283 84.44 223.403 78.48 225.643 73.12C227.883 67.76 231.043 63.12 235.123 59.2C239.203 55.28 244.083 52.28 249.763 50.2C255.443 48.12 261.643 47.08 268.363 47.08C274.523 47.08 279.603 47.84 283.603 49.36C287.603 50.88 291.283 52.96 294.643 55.6V77.44C292.803 75.52 290.683 73.72 288.283 72.04C285.883 70.28 283.163 68.92 280.123 67.96C277.083 66.92 273.563 66.4 269.563 66.4C265.003 66.4 260.803 67.36 256.963 69.28C253.203 71.2 250.163 74 247.843 77.68C245.523 81.36 244.363 85.8 244.363 91ZM302.944 77.8H341.704V92.8H302.944V77.8ZM313.624 80.2H331.024V133H313.624V80.2ZM367.385 159.4H349.265V77.8H367.385V159.4ZM412.505 105.4C412.505 111.8 411.225 117.2 408.665 121.6C406.185 126 402.945 129.32 398.945 131.56C395.025 133.8 390.785 134.92 386.225 134.92C381.425 134.92 377.265 133.72 373.745 131.32C370.305 128.84 367.665 125.4 365.825 121C363.985 116.52 363.065 111.32 363.065 105.4C363.065 99.4 363.985 94.2 365.825 89.8C367.665 85.4 370.305 82 373.745 79.6C377.265 77.12 381.425 75.88 386.225 75.88C390.785 75.88 395.025 77 398.945 79.24C402.945 81.48 406.185 84.8 408.665 89.2C411.225 93.52 412.505 98.92 412.505 105.4ZM393.425 105.4C393.425 102.52 392.825 100.08 391.625 98.08C390.425 96.08 388.825 94.56 386.825 93.52C384.825 92.48 382.625 91.96 380.225 91.96C378.145 91.96 376.105 92.48 374.105 93.52C372.185 94.48 370.585 95.96 369.305 97.96C368.025 99.96 367.385 102.44 367.385 105.4C367.385 108.36 368.025 110.84 369.305 112.84C370.585 114.84 372.185 116.36 374.105 117.4C376.105 118.36 378.145 118.84 380.225 118.84C382.625 118.84 384.825 118.32 386.825 117.28C388.825 116.24 390.425 114.72 391.625 112.72C392.825 110.72 393.425 108.28 393.425 105.4ZM420.207 105.4C420.207 99.56 421.567 94.48 424.287 90.16C427.007 85.84 430.767 82.48 435.567 80.08C440.367 77.68 445.767 76.48 451.767 76.48C457.767 76.48 463.127 77.68 467.847 80.08C472.647 82.48 476.407 85.84 479.127 90.16C481.927 94.48 483.327 99.56 483.327 105.4C483.327 111.16 481.927 116.2 479.127 120.52C476.407 124.84 472.647 128.2 467.847 130.6C463.127 133 457.767 134.2 451.767 134.2C445.767 134.2 440.367 133 435.567 130.6C430.767 128.2 427.007 124.84 424.287 120.52C421.567 116.2 420.207 111.16 420.207 105.4ZM438.807 105.4C438.807 108.28 439.407 110.76 440.607 112.84C441.807 114.84 443.367 116.4 445.287 117.52C447.207 118.64 449.367 119.2 451.767 119.2C454.087 119.2 456.207 118.64 458.127 117.52C460.127 116.4 461.687 114.84 462.807 112.84C464.007 110.76 464.607 108.28 464.607 105.4C464.607 102.52 464.007 100.04 462.807 97.96C461.687 95.88 460.127 94.28 458.127 93.16C456.207 92.04 454.087 91.48 451.767 91.48C449.367 91.48 447.207 92.04 445.287 93.16C443.367 94.28 441.807 95.88 440.607 97.96C439.407 100.04 438.807 102.52 438.807 105.4ZM550.148 93.4L494.468 137.2L495.068 117.4L550.748 73.6L550.148 93.4ZM511.988 77.8V120.28L494.468 137.2V77.8H511.988ZM550.748 73.6V133H533.348V90.52L550.748 73.6ZM503.828 49.6H515.708C515.708 50.96 516.028 52.2 516.668 53.32C517.308 54.36 518.228 55.2 519.428 55.84C520.628 56.4 521.988 56.68 523.508 56.68C525.028 56.68 526.388 56.4 527.588 55.84C528.788 55.2 529.708 54.36 530.348 53.32C530.988 52.2 531.308 50.96 531.308 49.6H543.188C543.188 52.8 542.428 55.76 540.908 58.48C539.388 61.12 537.148 63.24 534.188 64.84C531.308 66.36 527.748 67.12 523.508 67.12C519.348 67.12 515.788 66.36 512.828 64.84C509.868 63.24 507.628 61.12 506.108 58.48C504.588 55.76 503.828 52.8 503.828 49.6Z" fill="white"/>
</g>
<g filter="url(#filter2_d_28_154)">
<path d="M69.88 189.2V187.32H74.4C75.3333 187.32 76.1733 187.16 76.92 186.84C77.6667 186.52 78.2533 186.053 78.68 185.44C79.1067 184.827 79.32 184.08 79.32 183.2C79.32 181.867 78.8533 180.84 77.92 180.12C76.9867 179.373 75.8133 179 74.4 179H70.6V201H74.8C76 201 77.0533 200.787 77.96 200.36C78.8933 199.933 79.6133 199.32 80.12 198.52C80.6533 197.72 80.92 196.747 80.92 195.6C80.92 194.747 80.7733 193.987 80.48 193.32C80.1867 192.653 79.76 192.093 79.2 191.64C78.6667 191.187 78.0267 190.853 77.28 190.64C76.5333 190.4 75.7067 190.28 74.8 190.28H69.88V188.4H74.8C76.16 188.4 77.4133 188.547 78.56 188.84C79.7067 189.133 80.7067 189.587 81.56 190.2C82.44 190.787 83.12 191.547 83.6 192.48C84.08 193.413 84.32 194.52 84.32 195.8C84.32 197.64 83.8933 199.173 83.04 200.4C82.2133 201.6 81.08 202.507 79.64 203.12C78.2267 203.707 76.6133 204 74.8 204H67.2V176H74.4C76.08 176 77.5333 176.253 78.76 176.76C80.0133 177.267 80.9867 178.04 81.68 179.08C82.3733 180.093 82.72 181.4 82.72 183C82.72 184.307 82.3733 185.427 81.68 186.36C80.9867 187.293 80.0133 188 78.76 188.48C77.5333 188.96 76.08 189.2 74.4 189.2H69.88ZM90.7447 198.6C90.7447 199.24 90.918 199.787 91.2647 200.24C91.6114 200.667 92.078 201 92.6647 201.24C93.2514 201.453 93.9047 201.56 94.6247 201.56C95.6914 201.56 96.638 201.4 97.4647 201.08C98.2914 200.76 98.9314 200.253 99.3847 199.56C99.8647 198.867 100.105 197.947 100.105 196.8L100.745 198.8C100.745 199.973 100.425 200.987 99.7847 201.84C99.1714 202.667 98.3447 203.307 97.3047 203.76C96.2647 204.187 95.1047 204.4 93.8247 204.4C92.678 204.4 91.6247 204.187 90.6647 203.76C89.7047 203.333 88.9314 202.707 88.3447 201.88C87.7847 201.027 87.5047 199.973 87.5047 198.72C87.5047 197.413 87.8247 196.307 88.4647 195.4C89.1047 194.493 90.0114 193.8 91.1847 193.32C92.358 192.813 93.7447 192.56 95.3447 192.56C96.518 192.56 97.518 192.72 98.3447 193.04C99.198 193.333 99.878 193.68 100.385 194.08C100.891 194.453 101.238 194.76 101.425 195V196.88C100.518 196.24 99.598 195.773 98.6647 195.48C97.7314 195.16 96.678 195 95.5047 195C94.438 195 93.5447 195.147 92.8247 195.44C92.1314 195.733 91.6114 196.147 91.2647 196.68C90.918 197.213 90.7447 197.853 90.7447 198.6ZM90.7447 189.92L89.1847 187.48C89.878 186.973 90.8114 186.467 91.9847 185.96C93.158 185.453 94.5714 185.2 96.2247 185.2C97.638 185.2 98.8647 185.427 99.9047 185.88C100.971 186.307 101.798 186.933 102.385 187.76C102.998 188.587 103.305 189.6 103.305 190.8V204H100.105V190.8C100.105 189.867 99.7047 189.173 98.9047 188.72C98.1314 188.24 97.238 188 96.2247 188C95.3447 188 94.5447 188.12 93.8247 188.36C93.1047 188.573 92.478 188.84 91.9447 189.16C91.438 189.453 91.038 189.707 90.7447 189.92ZM122.919 201H130.719V185.6H133.919V204H108.719V185.6H111.919V201H119.719V185.6H122.919V201ZM140.37 195.6V192.88H152.65C152.543 191.92 152.276 191.08 151.85 190.36C151.45 189.613 150.876 189.04 150.13 188.64C149.41 188.213 148.516 188 147.45 188C146.383 188 145.41 188.227 144.53 188.68C143.65 189.133 142.943 189.787 142.41 190.64C141.903 191.467 141.65 192.453 141.65 193.6L141.57 194.8C141.57 196.213 141.81 197.413 142.29 198.4C142.77 199.387 143.45 200.133 144.33 200.64C145.21 201.147 146.25 201.4 147.45 201.4C148.356 201.4 149.156 201.267 149.85 201C150.57 200.707 151.21 200.32 151.77 199.84C152.33 199.333 152.81 198.747 153.21 198.08L155.81 199.72C155.196 200.653 154.516 201.48 153.77 202.2C153.023 202.893 152.116 203.44 151.05 203.84C149.983 204.213 148.65 204.4 147.05 204.4C145.396 204.4 143.903 203.987 142.57 203.16C141.263 202.333 140.223 201.2 139.45 199.76C138.703 198.293 138.33 196.64 138.33 194.8C138.33 194.453 138.343 194.12 138.37 193.8C138.396 193.48 138.436 193.16 138.49 192.84C138.756 191.32 139.29 189.987 140.09 188.84C140.89 187.693 141.916 186.8 143.17 186.16C144.45 185.52 145.876 185.2 147.45 185.2C149.183 185.2 150.703 185.587 152.01 186.36C153.316 187.133 154.33 188.227 155.05 189.64C155.77 191.027 156.13 192.693 156.13 194.64C156.13 194.8 156.13 194.96 156.13 195.12C156.13 195.28 156.116 195.44 156.09 195.6H140.37ZM173.948 194.8C173.948 196.08 174.214 197.213 174.748 198.2C175.308 199.187 176.054 199.973 176.988 200.56C177.948 201.12 179.028 201.4 180.228 201.4C181.214 201.4 182.134 201.253 182.988 200.96C183.868 200.64 184.628 200.227 185.268 199.72C185.908 199.187 186.361 198.627 186.628 198.04V202.04C185.988 202.787 185.068 203.373 183.868 203.8C182.694 204.2 181.481 204.4 180.228 204.4C178.441 204.4 176.828 203.987 175.388 203.16C173.948 202.333 172.801 201.2 171.948 199.76C171.121 198.293 170.708 196.64 170.708 194.8C170.708 192.933 171.121 191.28 171.948 189.84C172.801 188.4 173.948 187.267 175.388 186.44C176.828 185.613 178.441 185.2 180.228 185.2C181.481 185.2 182.694 185.413 183.868 185.84C185.068 186.24 185.988 186.813 186.628 187.56V191.56C186.361 190.947 185.908 190.387 185.268 189.88C184.628 189.373 183.868 188.973 182.988 188.68C182.134 188.36 181.214 188.2 180.228 188.2C179.028 188.2 177.948 188.48 176.988 189.04C176.054 189.6 175.308 190.387 174.748 191.4C174.214 192.387 173.948 193.52 173.948 194.8ZM197.809 198.4V195.4H204.089V198.4H197.809ZM201.809 185.6H205.009V204H201.809V185.6ZM193.809 185.6V190.88C193.809 191.947 193.929 192.813 194.169 193.48C194.409 194.147 194.823 194.64 195.409 194.96C195.996 195.253 196.796 195.4 197.809 195.4V198.4C195.969 198.4 194.516 198.147 193.449 197.64C192.409 197.133 191.676 196.333 191.249 195.24C190.823 194.12 190.609 192.667 190.609 190.88V185.6H193.809ZM212.463 198.6C212.463 199.24 212.637 199.787 212.983 200.24C213.33 200.667 213.797 201 214.383 201.24C214.97 201.453 215.623 201.56 216.343 201.56C217.41 201.56 218.357 201.4 219.183 201.08C220.01 200.76 220.65 200.253 221.103 199.56C221.583 198.867 221.823 197.947 221.823 196.8L222.463 198.8C222.463 199.973 222.143 200.987 221.503 201.84C220.89 202.667 220.063 203.307 219.023 203.76C217.983 204.187 216.823 204.4 215.543 204.4C214.397 204.4 213.343 204.187 212.383 203.76C211.423 203.333 210.65 202.707 210.063 201.88C209.503 201.027 209.223 199.973 209.223 198.72C209.223 197.413 209.543 196.307 210.183 195.4C210.823 194.493 211.73 193.8 212.903 193.32C214.077 192.813 215.463 192.56 217.063 192.56C218.237 192.56 219.237 192.72 220.063 193.04C220.917 193.333 221.597 193.68 222.103 194.08C222.61 194.453 222.957 194.76 223.143 195V196.88C222.237 196.24 221.317 195.773 220.383 195.48C219.45 195.16 218.397 195 217.223 195C216.157 195 215.263 195.147 214.543 195.44C213.85 195.733 213.33 196.147 212.983 196.68C212.637 197.213 212.463 197.853 212.463 198.6ZM212.463 189.92L210.903 187.48C211.597 186.973 212.53 186.467 213.703 185.96C214.877 185.453 216.29 185.2 217.943 185.2C219.357 185.2 220.583 185.427 221.623 185.88C222.69 186.307 223.517 186.933 224.103 187.76C224.717 188.587 225.023 189.6 225.023 190.8V204H221.823V190.8C221.823 189.867 221.423 189.173 220.623 188.72C219.85 188.24 218.957 188 217.943 188C217.063 188 216.263 188.12 215.543 188.36C214.823 188.573 214.197 188.84 213.663 189.16C213.157 189.453 212.757 189.707 212.463 189.92ZM231.878 194.8C231.878 196.08 232.144 197.213 232.678 198.2C233.238 199.187 233.984 199.973 234.918 200.56C235.878 201.12 236.958 201.4 238.158 201.4C239.144 201.4 240.064 201.253 240.918 200.96C241.798 200.64 242.558 200.227 243.198 199.72C243.838 199.187 244.291 198.627 244.558 198.04V202.04C243.918 202.787 242.998 203.373 241.798 203.8C240.624 204.2 239.411 204.4 238.158 204.4C236.371 204.4 234.758 203.987 233.317 203.16C231.878 202.333 230.731 201.2 229.878 199.76C229.051 198.293 228.638 196.64 228.638 194.8C228.638 192.933 229.051 191.28 229.878 189.84C230.731 188.4 231.878 187.267 233.317 186.44C234.758 185.613 236.371 185.2 238.158 185.2C239.411 185.2 240.624 185.413 241.798 185.84C242.998 186.24 243.918 186.813 244.558 187.56V191.56C244.291 190.947 243.838 190.387 243.198 189.88C242.558 189.373 241.798 188.973 240.918 188.68C240.064 188.36 239.144 188.2 238.158 188.2C236.958 188.2 235.878 188.48 234.918 189.04C233.984 189.6 233.238 190.387 232.678 191.4C232.144 192.387 231.878 193.52 231.878 194.8ZM246.739 185.6H257.539V188.6H246.739V185.6ZM250.539 186.4H253.739V204H250.539V186.4ZM260.75 185.6H263.95V204H260.75V185.6ZM262.63 195.36V192.56H268.35C270.243 192.56 271.83 193.027 273.11 193.96C274.417 194.867 275.07 196.307 275.07 198.28C275.07 199.587 274.777 200.667 274.19 201.52C273.603 202.373 272.803 203 271.79 203.4C270.777 203.8 269.63 204 268.35 204H262.63V201.2H268.35C269.123 201.2 269.763 201.093 270.27 200.88C270.803 200.64 271.203 200.307 271.47 199.88C271.737 199.427 271.87 198.893 271.87 198.28C271.87 197.347 271.577 196.627 270.99 196.12C270.403 195.613 269.523 195.36 268.35 195.36H262.63ZM280.526 195.6V192.88H292.806C292.699 191.92 292.433 191.08 292.006 190.36C291.606 189.613 291.033 189.04 290.286 188.64C289.566 188.213 288.673 188 287.606 188C286.539 188 285.566 188.227 284.686 188.68C283.806 189.133 283.099 189.787 282.566 190.64C282.059 191.467 281.806 192.453 281.806 193.6L281.726 194.8C281.726 196.213 281.966 197.413 282.446 198.4C282.926 199.387 283.606 200.133 284.486 200.64C285.366 201.147 286.406 201.4 287.606 201.4C288.513 201.4 289.313 201.267 290.006 201C290.726 200.707 291.366 200.32 291.926 199.84C292.486 199.333 292.966 198.747 293.366 198.08L295.966 199.72C295.353 200.653 294.673 201.48 293.926 202.2C293.179 202.893 292.273 203.44 291.206 203.84C290.139 204.213 288.806 204.4 287.206 204.4C285.553 204.4 284.059 203.987 282.726 203.16C281.419 202.333 280.379 201.2 279.606 199.76C278.859 198.293 278.486 196.64 278.486 194.8C278.486 194.453 278.499 194.12 278.526 193.8C278.553 193.48 278.593 193.16 278.646 192.84C278.913 191.32 279.446 189.987 280.246 188.84C281.046 187.693 282.073 186.8 283.326 186.16C284.606 185.52 286.033 185.2 287.606 185.2C289.339 185.2 290.859 185.587 292.166 186.36C293.473 187.133 294.486 188.227 295.206 189.64C295.926 191.027 296.286 192.693 296.286 194.64C296.286 194.8 296.286 194.96 296.286 195.12C296.286 195.28 296.273 195.44 296.246 195.6H280.526ZM314.544 195.8V192.8H328.144V195.8H314.544ZM326.064 185.6H329.264V204H326.064V185.6ZM312.664 185.6H315.864V204H312.664V185.6ZM335.721 195.6V192.88H348.001C347.895 191.92 347.628 191.08 347.201 190.36C346.801 189.613 346.228 189.04 345.481 188.64C344.761 188.213 343.868 188 342.801 188C341.735 188 340.761 188.227 339.881 188.68C339.001 189.133 338.295 189.787 337.761 190.64C337.255 191.467 337.001 192.453 337.001 193.6L336.921 194.8C336.921 196.213 337.161 197.413 337.641 198.4C338.121 199.387 338.801 200.133 339.681 200.64C340.561 201.147 341.601 201.4 342.801 201.4C343.708 201.4 344.508 201.267 345.201 201C345.921 200.707 346.561 200.32 347.121 199.84C347.681 199.333 348.161 198.747 348.561 198.08L351.161 199.72C350.548 200.653 349.868 201.48 349.121 202.2C348.375 202.893 347.468 203.44 346.401 203.84C345.335 204.213 344.001 204.4 342.401 204.4C340.748 204.4 339.255 203.987 337.921 203.16C336.615 202.333 335.575 201.2 334.801 199.76C334.055 198.293 333.681 196.64 333.681 194.8C333.681 194.453 333.695 194.12 333.721 193.8C333.748 193.48 333.788 193.16 333.841 192.84C334.108 191.32 334.641 189.987 335.441 188.84C336.241 187.693 337.268 186.8 338.521 186.16C339.801 185.52 341.228 185.2 342.801 185.2C344.535 185.2 346.055 185.587 347.361 186.36C348.668 187.133 349.681 188.227 350.401 189.64C351.121 191.027 351.481 192.693 351.481 194.64C351.481 194.8 351.481 194.96 351.481 195.12C351.481 195.28 351.468 195.44 351.441 195.6H335.721ZM382.859 185.6V204H379.659V188.6H371.059V204H367.859V185.6H382.859ZM391.875 212.8H388.675V185.6H391.875V212.8ZM407.275 194.8C407.275 196.773 406.862 198.48 406.035 199.92C405.208 201.36 404.102 202.467 402.715 203.24C401.355 204.013 399.835 204.4 398.155 204.4C396.635 204.4 395.288 204.013 394.115 203.24C392.968 202.467 392.062 201.36 391.395 199.92C390.755 198.48 390.435 196.773 390.435 194.8C390.435 192.8 390.755 191.093 391.395 189.68C392.062 188.24 392.968 187.133 394.115 186.36C395.288 185.587 396.635 185.2 398.155 185.2C399.835 185.2 401.355 185.587 402.715 186.36C404.102 187.133 405.208 188.24 406.035 189.68C406.862 191.093 407.275 192.8 407.275 194.8ZM404.035 194.8C404.035 193.387 403.742 192.187 403.155 191.2C402.595 190.213 401.835 189.467 400.875 188.96C399.942 188.453 398.902 188.2 397.755 188.2C396.822 188.2 395.902 188.453 394.995 188.96C394.088 189.467 393.342 190.213 392.755 191.2C392.168 192.187 391.875 193.387 391.875 194.8C391.875 196.213 392.168 197.413 392.755 198.4C393.342 199.387 394.088 200.133 394.995 200.64C395.902 201.147 396.822 201.4 397.755 201.4C398.902 201.4 399.942 201.147 400.875 200.64C401.835 200.133 402.595 199.387 403.155 198.4C403.742 197.413 404.035 196.213 404.035 194.8ZM410.088 194.8C410.088 192.933 410.501 191.28 411.327 189.84C412.181 188.4 413.328 187.267 414.768 186.44C416.208 185.613 417.821 185.2 419.608 185.2C421.421 185.2 423.034 185.613 424.448 186.44C425.888 187.267 427.021 188.4 427.848 189.84C428.701 191.28 429.128 192.933 429.128 194.8C429.128 196.64 428.701 198.293 427.848 199.76C427.021 201.2 425.888 202.333 424.448 203.16C423.034 203.987 421.421 204.4 419.608 204.4C417.821 204.4 416.208 203.987 414.768 203.16C413.328 202.333 412.181 201.2 411.327 199.76C410.501 198.293 410.088 196.64 410.088 194.8ZM413.328 194.8C413.328 196.08 413.594 197.213 414.128 198.2C414.688 199.187 415.434 199.973 416.368 200.56C417.328 201.12 418.408 201.4 419.608 201.4C420.808 201.4 421.874 201.12 422.808 200.56C423.768 199.973 424.514 199.187 425.048 198.2C425.608 197.213 425.888 196.08 425.888 194.8C425.888 193.52 425.608 192.387 425.048 191.4C424.514 190.387 423.768 189.6 422.808 189.04C421.874 188.48 420.808 188.2 419.608 188.2C418.408 188.2 417.328 188.48 416.368 189.04C415.434 189.6 414.688 190.387 414.128 191.4C413.594 192.387 413.328 193.52 413.328 194.8ZM434.963 194.8C434.963 196.08 435.23 197.213 435.763 198.2C436.323 199.187 437.07 199.973 438.003 200.56C438.963 201.12 440.043 201.4 441.243 201.4C442.23 201.4 443.15 201.253 444.003 200.96C444.883 200.64 445.643 200.227 446.283 199.72C446.923 199.187 447.377 198.627 447.643 198.04V202.04C447.003 202.787 446.083 203.373 444.883 203.8C443.71 204.2 442.497 204.4 441.243 204.4C439.457 204.4 437.843 203.987 436.403 203.16C434.963 202.333 433.817 201.2 432.963 199.76C432.137 198.293 431.723 196.64 431.723 194.8C431.723 192.933 432.137 191.28 432.963 189.84C433.817 188.4 434.963 187.267 436.403 186.44C437.843 185.613 439.457 185.2 441.243 185.2C442.497 185.2 443.71 185.413 444.883 185.84C446.083 186.24 447.003 186.813 447.643 187.56V191.56C447.377 190.947 446.923 190.387 446.283 189.88C445.643 189.373 444.883 188.973 444.003 188.68C443.15 188.36 442.23 188.2 441.243 188.2C440.043 188.2 438.963 188.48 438.003 189.04C437.07 189.6 436.323 190.387 435.763 191.4C435.23 192.387 434.963 193.52 434.963 194.8ZM449.825 185.6H460.625V188.6H449.825V185.6ZM453.625 186.4H456.825V204H453.625V186.4ZM461.65 194.8C461.65 192.933 462.063 191.28 462.89 189.84C463.743 188.4 464.89 187.267 466.33 186.44C467.77 185.613 469.383 185.2 471.17 185.2C472.983 185.2 474.597 185.613 476.01 186.44C477.45 187.267 478.583 188.4 479.41 189.84C480.263 191.28 480.69 192.933 480.69 194.8C480.69 196.64 480.263 198.293 479.41 199.76C478.583 201.2 477.45 202.333 476.01 203.16C474.597 203.987 472.983 204.4 471.17 204.4C469.383 204.4 467.77 203.987 466.33 203.16C464.89 202.333 463.743 201.2 462.89 199.76C462.063 198.293 461.65 196.64 461.65 194.8ZM464.89 194.8C464.89 196.08 465.157 197.213 465.69 198.2C466.25 199.187 466.997 199.973 467.93 200.56C468.89 201.12 469.97 201.4 471.17 201.4C472.37 201.4 473.437 201.12 474.37 200.56C475.33 199.973 476.077 199.187 476.61 198.2C477.17 197.213 477.45 196.08 477.45 194.8C477.45 193.52 477.17 192.387 476.61 191.4C476.077 190.387 475.33 189.6 474.37 189.04C473.437 188.48 472.37 188.2 471.17 188.2C469.97 188.2 468.89 188.48 467.93 189.04C466.997 189.6 466.25 190.387 465.69 191.4C465.157 192.387 464.89 193.52 464.89 194.8ZM497.278 185.6H507.078V188.6H500.478V204H497.278V185.6ZM511.721 198.6C511.721 199.24 511.895 199.787 512.241 200.24C512.588 200.667 513.055 201 513.641 201.24C514.228 201.453 514.881 201.56 515.601 201.56C516.668 201.56 517.615 201.4 518.441 201.08C519.268 200.76 519.908 200.253 520.361 199.56C520.841 198.867 521.081 197.947 521.081 196.8L521.721 198.8C521.721 199.973 521.401 200.987 520.761 201.84C520.148 202.667 519.321 203.307 518.281 203.76C517.241 204.187 516.081 204.4 514.801 204.4C513.655 204.4 512.601 204.187 511.641 203.76C510.681 203.333 509.908 202.707 509.321 201.88C508.761 201.027 508.481 199.973 508.481 198.72C508.481 197.413 508.801 196.307 509.441 195.4C510.081 194.493 510.988 193.8 512.161 193.32C513.335 192.813 514.721 192.56 516.321 192.56C517.495 192.56 518.495 192.72 519.321 193.04C520.175 193.333 520.855 193.68 521.361 194.08C521.868 194.453 522.215 194.76 522.401 195V196.88C521.495 196.24 520.575 195.773 519.641 195.48C518.708 195.16 517.655 195 516.481 195C515.415 195 514.521 195.147 513.801 195.44C513.108 195.733 512.588 196.147 512.241 196.68C511.895 197.213 511.721 197.853 511.721 198.6ZM511.721 189.92L510.161 187.48C510.855 186.973 511.788 186.467 512.961 185.96C514.135 185.453 515.548 185.2 517.201 185.2C518.615 185.2 519.841 185.427 520.881 185.88C521.948 186.307 522.775 186.933 523.361 187.76C523.975 188.587 524.281 189.6 524.281 190.8V204H521.081V190.8C521.081 189.867 520.681 189.173 519.881 188.72C519.108 188.24 518.215 188 517.201 188C516.321 188 515.521 188.12 514.801 188.36C514.081 188.573 513.455 188.84 512.921 189.16C512.415 189.453 512.015 189.707 511.721 189.92ZM536.215 194.8V192.8C537.442 192.8 538.322 192.573 538.855 192.12C539.389 191.64 539.655 191.067 539.655 190.4C539.655 189.68 539.389 189.12 538.855 188.72C538.322 188.293 537.575 188.08 536.615 188.08C535.815 188.08 535.149 188.24 534.615 188.56C534.109 188.853 533.735 189.227 533.495 189.68C533.255 190.107 533.135 190.533 533.135 190.96H529.895C529.895 189.92 530.189 188.96 530.775 188.08C531.362 187.2 532.162 186.507 533.175 186C534.189 185.467 535.335 185.2 536.615 185.2C537.815 185.2 538.895 185.427 539.855 185.88C540.815 186.333 541.562 186.933 542.095 187.68C542.655 188.427 542.935 189.253 542.935 190.16C542.935 191.493 542.335 192.6 541.135 193.48C539.962 194.36 538.322 194.8 536.215 194.8ZM536.535 204.4C534.375 204.4 532.642 203.813 531.335 202.64C530.055 201.467 529.309 199.987 529.095 198.2H532.335C532.522 199.08 532.922 199.867 533.535 200.56C534.149 201.253 535.149 201.6 536.535 201.6C537.389 201.6 538.109 201.48 538.695 201.24C539.309 201 539.775 200.653 540.095 200.2C540.415 199.747 540.575 199.227 540.575 198.64C540.575 198 540.402 197.453 540.055 197C539.735 196.547 539.242 196.2 538.575 195.96C537.935 195.72 537.149 195.6 536.215 195.6V193.6C538.509 193.6 540.335 194 541.695 194.8C543.055 195.6 543.735 196.867 543.735 198.6C543.735 199.8 543.402 200.84 542.735 201.72C542.095 202.573 541.229 203.24 540.135 203.72C539.042 204.173 537.842 204.4 536.535 204.4Z" fill="white"/>
</g>
<g filter="url(#filter3_d_28_154)">
<path fill-rule="evenodd" clip-rule="evenodd" d="M584.119 155.187H710.112V196.989H584.119V155.187ZM574 206H720.374V146.301H574V206Z" fill="white"/>
<path fill-rule="evenodd" clip-rule="evenodd" d="M644.693 134.536C646.126 133.693 648.395 131.207 649.787 129.999C650.682 129.222 651.464 128.528 652.353 127.747C652.752 127.396 654.812 125.756 654.812 125.4V81.2199H773.964V194.736H733.201C733.874 195.618 742.534 202.819 742.759 203.24C743.129 203.93 742.52 202.603 742.829 203.485C742.858 203.568 742.548 203.77 743.733 203.754C744.404 203.746 745.073 203.747 745.743 203.747H784.225V72.3338H644.693V134.536Z" fill="white"/>
<path fill-rule="evenodd" clip-rule="evenodd" d="M643.267 64.8244C643.575 64.7265 643.469 64.7375 643.555 64.7013C643.58 64.6906 643.623 64.6732 643.651 64.6612L644.408 64.1987C644.996 63.6937 645.912 63.3095 646.543 62.82L649.063 61.2778C649.275 61.1659 649.117 61.2757 649.323 61.1309L650.935 60.043C650.958 60.0268 650.993 60.0058 651.016 59.9894L651.459 59.6276C651.536 59.5641 651.648 59.4776 651.688 59.4528L651.867 59.3598C651.894 59.3455 651.933 59.3306 651.96 59.3166C651.988 59.3025 652.026 59.2872 652.053 59.2729C652.08 59.2588 652.117 59.2416 652.143 59.2269L654.72 57.61C655.572 57.161 656.32 56.4746 657.184 56.0189L659.27 54.7213C659.295 54.7069 659.33 54.6869 659.356 54.6717L668.883 48.7699C668.909 48.7553 668.946 48.7381 668.973 48.724L675.241 44.7166C675.268 44.7023 675.307 44.6874 675.334 44.6734L676.009 44.2643C676.035 44.2497 676.072 44.2325 676.099 44.2184C676.126 44.2041 676.165 44.1888 676.192 44.1747L677.418 43.3745C677.443 43.3592 677.478 43.3389 677.502 43.3228L678.397 42.7317C678.744 42.4904 678.45 42.6755 678.683 42.4826L679.947 41.7153C679.974 41.701 680.013 41.6856 680.04 41.6716L683.36 39.5811C683.435 39.5392 683.563 39.4516 683.604 39.4196C684.276 38.8987 685.16 38.5173 685.81 37.9769C685.886 37.9129 685.996 37.8266 686.037 37.801L693.007 33.4084C693.048 33.3766 693.176 33.289 693.25 33.247L696.473 31.3209C696.682 31.2029 696.742 31.1214 696.926 30.9683L699.241 29.4959C699.267 29.4813 699.304 29.4642 699.331 29.45L708.22 23.8639C708.429 23.7465 708.381 23.8031 708.588 23.6864C708.875 23.524 708.925 23.4158 709.112 23.2708L711.805 21.6306C711.84 21.6098 711.931 21.5424 711.965 21.5206C712.135 21.4104 712.068 21.4406 712.21 21.3608C712.389 21.2605 712.327 21.3122 712.487 21.228C712.699 21.1161 712.541 21.2257 712.747 21.0811L713.441 20.5639C713.772 20.3979 713.964 20.3561 714.103 20.0187H714.673C714.787 20.2962 714.766 20.2691 715.05 20.4379C715.257 20.5608 715.145 20.4688 715.334 20.5639L716.11 21.1349C716.135 21.1503 716.171 21.1686 716.197 21.1832C716.223 21.198 716.262 21.2138 716.289 21.228L717.512 21.9063C717.609 21.9669 717.729 22.0786 717.808 22.1463L718.646 22.6619C718.651 22.6649 718.961 22.8793 718.966 22.8822L719.142 22.9777C719.169 22.992 719.207 23.0073 719.235 23.0214C719.262 23.0354 719.301 23.0503 719.328 23.0646C719.355 23.0787 719.393 23.0946 719.42 23.1094C719.445 23.124 719.482 23.1423 719.507 23.1578L720.279 23.7311C720.439 23.8152 720.377 23.7636 720.556 23.8639L725.15 26.8382C725.555 27.1218 724.858 26.6805 725.319 26.9403L726.01 27.3341C726.035 27.3496 726.067 27.3729 726.092 27.3878C726.117 27.4029 726.152 27.423 726.178 27.4375C726.204 27.452 726.241 27.4692 726.268 27.4833C726.295 27.4976 726.334 27.5129 726.361 27.527C726.982 27.8461 727.08 28.0763 727.809 28.383L728.543 28.7398C728.569 28.7546 728.605 28.7733 728.629 28.7889L730.001 29.7121C730.025 29.7275 730.058 29.7508 730.083 29.7658C730.108 29.7809 730.143 29.8009 730.169 29.8154L732.914 31.6601C732.945 31.6841 733.036 31.7517 733.07 31.773L733.25 31.8658C733.415 31.9513 733.341 31.8908 733.529 31.9957C733.603 32.0366 733.733 32.1255 733.773 32.1569L737.243 34.367C737.27 34.3812 737.308 34.3966 737.335 34.4106L737.52 34.4986C737.981 34.7584 737.285 34.3172 737.689 34.6007L739.238 35.6185C740.004 36.0223 740.661 36.6474 741.424 37.078L749.406 42.0841C749.623 42.2052 749.56 42.1373 749.777 42.2584L751.588 43.4218C751.615 43.4359 751.654 43.4508 751.681 43.465C751.708 43.4792 751.747 43.495 751.773 43.5098L752.372 43.9845C752.579 44.1293 752.42 44.0197 752.633 44.1315L757.391 47.0868C757.57 47.1871 757.507 47.1356 757.667 47.2197L762.656 50.4737C762.909 50.6068 763.057 50.8509 763.607 51.1402L765.291 52.1645C766.026 52.5615 765.605 52.1842 766.408 52.8112L771.591 56.0189C771.618 56.0331 771.657 56.0484 771.684 56.0625L772.729 56.7722C772.756 56.7864 772.795 56.8013 772.822 56.8154L773.587 57.2704C773.614 57.2847 773.652 57.3 773.68 57.314C773.707 57.3281 773.746 57.343 773.773 57.3572L776.632 59.2269C776.811 59.3272 776.748 59.2757 776.908 59.3598L778.718 60.5245C778.745 60.5387 778.783 60.5541 778.81 60.5681C778.838 60.5822 778.877 60.5971 778.904 60.6113L779.855 61.2778C779.882 61.2921 779.921 61.307 779.948 61.321L780.713 61.776C780.74 61.7903 780.779 61.8056 780.806 61.8196C780.833 61.8337 780.872 61.8486 780.899 61.8629L783.073 63.2076C783.114 63.2333 783.224 63.3195 783.301 63.3836L784.938 64.5741C785.14 63.8111 784.593 62.3799 784.404 61.5383L782.887 55.3617C782.595 54.2497 782.391 53.1816 782.116 52.1588C781.832 51.1031 781.613 50.1214 781.364 49.0638C781.256 48.6008 781.106 47.9501 780.986 47.5191C780.831 46.9639 780.589 46.8578 780.142 46.6332L777.193 44.7166C777.166 44.7023 777.128 44.6874 777.1 44.6734C777.073 44.6593 777.034 44.644 777.007 44.6297C776.981 44.6156 776.943 44.5984 776.917 44.5837L772.926 42.0807C772.901 42.0662 772.866 42.0461 772.84 42.0311L772.345 41.7153C772.181 41.6287 772.252 41.6877 772.067 41.5836L767.121 38.4176C767.094 38.4035 767.055 38.3886 767.028 38.3744C767.001 38.3602 766.963 38.3444 766.936 38.3296L765.476 37.3589C765.452 37.3435 765.42 37.3202 765.395 37.3051C765.37 37.2901 765.335 37.27 765.309 37.2555C765.283 37.241 765.245 37.2237 765.219 37.2097C765.191 37.1954 765.153 37.18 765.126 37.166L762.341 35.3564C762.316 35.3409 762.284 35.3176 762.259 35.3027L761.99 35.1635C761.963 35.1495 761.924 35.1346 761.897 35.1203L760.669 34.321C760.643 34.3065 760.608 34.2865 760.583 34.2714L759.995 33.912C759.967 33.8979 759.929 33.883 759.902 33.8688L757.097 31.9506C757.07 31.9364 757.031 31.9215 757.004 31.9074C756.977 31.8934 756.938 31.878 756.911 31.8638L752.06 28.7398C751.914 28.6558 751.846 28.6356 751.693 28.5611L750.377 27.8397C750.348 27.8151 750.078 27.6236 750.063 27.615L747.882 26.2754C747.855 26.2614 747.817 26.2461 747.79 26.2318L745.98 25.0675C745.94 25.047 745.832 25.0028 745.792 24.9822L745.316 24.6495C745.236 24.5817 745.116 24.4701 745.019 24.4094L744.747 24.2729C744.72 24.259 744.681 24.2435 744.654 24.2293L744.478 24.1338C744.453 24.1188 744.421 24.0955 744.396 24.0801L739.805 21.228C739.778 21.2138 739.74 21.198 739.714 21.1832L737.437 19.6778C737.348 19.6276 737.275 19.5644 737.114 19.4616L734.861 18.0608C734.834 18.0465 734.795 18.0312 734.768 18.0171L730.21 15.0105C730.179 14.9865 730.088 14.9189 730.054 14.8976L727.599 13.4235C727.573 13.4089 727.537 13.3907 727.512 13.3752L726.139 12.4528C726.115 12.4374 726.082 12.4141 726.058 12.3992L717.524 7.00146C717.497 6.98741 717.459 6.97209 717.432 6.95783C717.405 6.94367 717.368 6.92654 717.341 6.91185L714.677 5.24671C714.391 5.05407 714.547 5.34601 714.388 5H714.103C714.013 5.21776 714.045 5.12548 713.951 5.24245C713.921 5.28045 713.751 5.45936 713.685 5.50971L712.202 6.45962C712.175 6.47388 712.136 6.48878 712.108 6.50283C712.081 6.51688 712.043 6.5322 712.016 6.54646L711.344 6.95783C711.317 6.97209 711.278 6.98741 711.251 7.00146L710.542 7.505C710 7.92562 709.221 8.17382 708.687 8.62946L707.849 9.14512C707.824 9.16013 707.791 9.18344 707.767 9.19887L703.995 11.6435C703.898 11.7041 703.778 11.8158 703.698 11.8835C703.619 11.9513 703.499 12.0629 703.402 12.1236L701.563 13.2621C701.531 13.2862 701.44 13.3538 701.406 13.3752L700.46 13.9206C700.433 13.9352 700.396 13.9525 700.369 13.9665C700.342 13.9808 700.304 13.9961 700.276 14.0102L698.632 15.0688C698.607 15.0843 698.575 15.1076 698.55 15.1226L698.374 15.2181C698.347 15.2323 698.308 15.2477 698.281 15.2617L695.415 17.125C695.389 17.1401 695.354 17.1602 695.329 17.1746C695.302 17.1893 695.265 17.2064 695.238 17.2206C695.211 17.2348 695.173 17.2502 695.146 17.2642L693.825 18.1067C693.799 18.1212 693.764 18.1412 693.739 18.1563L693.333 18.4262C693.307 18.4408 693.27 18.458 693.243 18.4721C693.216 18.4864 693.178 18.5017 693.15 18.5158L690.11 20.4771C690.083 20.4914 690.044 20.5063 690.017 20.5203L689.429 20.8797C689.403 20.8948 689.368 20.9149 689.342 20.9293L684.298 24.1338C684.272 24.1488 684.237 24.1689 684.212 24.1834L682.891 25.0259C682.863 25.04 682.825 25.0553 682.798 25.0696C682.771 25.0836 682.734 25.1008 682.708 25.1154L682.216 25.4349C682.007 25.5523 682.055 25.4957 681.848 25.6126C681.831 25.6226 681.566 25.8096 681.534 25.8368C680.688 26.5403 679.082 27.2677 678.397 27.8387L677.319 28.5188C677.291 28.5323 677.255 28.5498 677.227 28.5633L673.237 31.0669C673.211 31.0816 673.174 31.0987 673.147 31.1129C673.12 31.1272 673.081 31.1425 673.054 31.1565L668.016 34.367C667.989 34.3812 667.95 34.3966 667.923 34.4106L665.743 35.7502C665.08 36.124 665.219 36.1942 664.79 36.4151L661.471 38.5071C661.445 38.5216 661.41 38.5417 661.385 38.5568C661.36 38.5717 661.328 38.595 661.304 38.6104C661.228 38.6589 661.073 38.7726 661.066 38.777L651.49 44.7613C651.474 44.7708 651.206 44.9581 651.174 44.9844L650.007 45.8367C649.796 45.9532 649.845 45.8964 649.638 46.0129C649.621 46.0223 649.355 46.2106 649.323 46.2372L648.775 46.6325C648.158 46.941 648.059 47.204 647.883 47.8517C647.729 48.4218 647.619 48.7903 647.458 49.3552C647.145 50.4507 646.913 51.3957 646.603 52.4841L644.093 61.6701C643.824 62.6092 643.36 63.8499 643.267 64.8244Z" fill="white"/>
<path fill-rule="evenodd" clip-rule="evenodd" d="M599.37 117.265L599.365 105.996C599.385 105.792 599.372 105.856 599.43 105.678L599.512 105.5C599.754 104.906 599.523 104.328 599.753 103.709C599.764 103.679 599.784 103.65 599.796 103.621C599.807 103.592 599.826 103.562 599.837 103.533C599.849 103.502 599.865 103.472 599.875 103.441L600.595 101.194C600.61 101.169 600.629 101.137 600.644 101.112C600.658 101.087 600.678 101.055 600.693 101.03L600.845 100.788C601.487 99.7969 601.125 100.118 602.078 99.3678L603.073 98.4893C603.101 98.4755 603.14 98.4608 603.167 98.4467L604.727 97.5639C605.33 97.2458 605.919 96.8993 606.604 96.7088L607.022 96.5755C607.056 96.565 607.091 96.5501 607.124 96.54L610.481 95.8584C611.677 95.7669 613.654 95.7093 614.898 95.869C615.541 95.9515 615.445 96.0761 616.188 96.1135L619.8 97.0719C619.829 97.0847 619.866 97.1009 619.895 97.1137L621.084 97.6959C621.122 97.714 621.235 97.7621 621.272 97.7812L622.946 99.0651C623.349 99.5031 623.816 99.7254 624.193 100.223L624.304 100.375C624.32 100.399 624.34 100.431 624.356 100.455C624.372 100.479 624.39 100.512 624.406 100.536L624.609 100.859C624.624 100.883 624.646 100.914 624.662 100.937C624.708 101.007 624.78 101.108 624.822 101.172L625.121 101.661C625.136 101.686 625.155 101.718 625.17 101.743L625.95 103.686C625.962 103.716 625.977 103.747 625.989 103.777C626.199 104.291 626.076 104.788 626.264 105.288L626.455 106.372C626.439 107.777 626.679 116.598 626.307 117.515C626.012 118.243 626.297 118.661 625.775 119.926C625.323 121.02 625.412 121.343 624.716 122.501C624.702 122.526 624.68 122.556 624.664 122.581L623.314 124.148C623.294 124.167 623.268 124.197 623.249 124.217L621.787 125.686C621.582 125.87 621.773 125.721 621.553 125.856L618.206 127.297C618.175 127.309 618.138 127.323 618.106 127.335C618.075 127.346 618.039 127.362 618.008 127.373L615.843 127.725C615.6 127.786 615.611 127.777 615.343 127.787C614.073 127.835 612.634 127.774 611.342 127.778C610.182 127.782 609.631 127.634 608.649 127.515L606.776 127.031C606.74 127.021 606.7 127.015 606.664 127.004C606.629 126.994 606.589 126.986 606.556 126.975L604.975 126.36C604.68 126.216 604.973 126.404 604.742 126.189C604.721 126.17 604.7 126.138 604.681 126.118L601.566 123.346C601.547 123.326 601.518 123.3 601.499 123.279C601.16 122.904 601.376 123.317 601.165 122.697L600.861 122.088C600.463 121.625 600.677 122.161 600.506 121.523L599.928 119.403C599.753 118.538 599.849 119.456 599.684 118.741C599.616 118.449 599.683 118.167 599.663 117.884C599.591 116.891 599.548 117.718 599.37 117.265ZM602.79 84.0984L602.596 83.5186C602.58 83.4955 602.553 83.4674 602.536 83.4454C602.339 83.1878 602.293 83.1615 602.079 82.9711L600.988 81.5507C600.966 81.5139 600.552 80.806 600.363 80.097L599.751 78.132C599.739 78.1017 599.723 78.0717 599.713 78.0401L599.359 75.7223C599.326 73.6003 599.187 65.2495 599.512 64.449C599.687 64.0197 599.569 63.3237 599.683 62.8467C599.852 62.1391 599.751 63.0446 599.928 62.1859C600.043 61.6271 600.058 61.1579 600.274 60.7371C601.118 59.0938 601.227 59.2202 602.462 57.9026C602.62 57.7333 602.546 57.7883 602.742 57.6477L604.701 56.49C604.728 56.4758 604.763 56.4564 604.79 56.4426L611.402 54.7392C611.958 54.6006 614.706 54.5991 615.304 54.7117C616.116 54.8644 615.056 54.798 616.06 54.9239L617.253 55.1278C617.514 55.1909 617.499 55.1606 617.74 55.2017L619.234 55.6412C619.265 55.653 619.299 55.671 619.33 55.6824C620.126 55.9804 620.128 55.9059 620.823 56.3734L623.324 57.9322C624.1 58.6339 624.017 58.8555 624.455 59.3173L625.081 60.2688C625.401 60.7405 625.509 61.2275 625.699 61.7294L625.897 62.4313C625.905 62.4683 625.909 62.5016 625.918 62.5374L626.351 64.2856C626.574 64.874 626.511 76.0736 626.421 76.439C626.329 76.8174 626.352 76.6027 626.307 76.7143C626.069 77.3023 626.277 77.4927 625.918 78.6256L624.179 82.3548C623.902 82.8797 623.422 83.1253 623.181 83.606C623.083 83.8003 623.194 83.7011 623.016 83.962C622.716 84.4015 622.223 84.2789 621.842 84.6832L618.797 86.3894C618.218 86.6427 617.444 86.6909 616.902 86.853L615.477 86.9782C613.913 86.9661 610.21 87.2045 608.817 86.8162L607.527 86.572C607.512 86.5665 607.227 86.457 607.128 86.4217L604.697 85.3032C604.66 85.2839 604.559 85.2253 604.524 85.2042L604.001 84.7878C603.981 84.769 603.953 84.7409 603.933 84.7217L603.269 84.179C602.977 84.0712 603.18 84.106 602.79 84.0984ZM601.223 90.982V91.2323C600.666 91.2858 600.439 91.6444 599.995 91.906C599.257 92.3399 599.061 92.6081 598.912 92.7077L597.291 94.0378C596.905 94.456 596.363 94.7835 596.122 95.2637C596.055 95.3966 596.19 95.4021 595.666 95.8647C595.586 95.9355 595.459 96.0364 595.387 96.12C595.368 96.141 595.345 96.1721 595.328 96.194L594.479 97.5754C594.462 97.5986 594.441 97.63 594.424 97.6523C594.297 97.8179 594.404 97.6617 594.232 97.86C593.809 98.3491 594.06 98.4847 593.768 99.0792L592.653 101.855C592.554 102.514 592.531 103.719 592.343 104.21C592.183 104.626 592.119 116.847 592.25 117.634C592.396 118.51 592.399 117.204 592.528 119.518C592.552 119.947 592.609 120.017 592.653 120.409C592.673 120.585 592.662 120.693 592.704 120.865C592.712 120.9 592.723 120.931 592.734 120.965L592.994 121.863C593.003 121.897 593.011 121.93 593.021 121.963L593.801 123.657C593.878 123.847 593.873 123.893 593.93 124.044C594.171 124.69 593.75 123.666 594.003 124.23L595.759 126.944C595.833 127.051 595.824 127.063 595.907 127.189L597.161 128.716C597.343 128.888 597.123 128.667 597.293 128.85L598.13 129.618C598.423 129.808 598.18 129.605 598.447 129.84L598.94 130.408C599.319 130.742 599.64 130.751 599.984 131.118C600.011 131.146 600.082 131.231 600.111 131.257L601.133 131.987C601.196 132.022 601.249 132.045 601.315 132.077C601.415 132.126 601.604 132.209 601.692 132.246L603.36 132.91C603.391 132.922 603.428 132.936 603.459 132.948C603.491 132.959 603.528 132.972 603.56 132.984L607.107 133.875C608.549 134.277 615.341 134.022 617.476 134.04C617.963 134.044 618.11 134.066 618.512 133.949C618.927 133.827 618.239 133.933 618.927 133.813C619.191 133.766 619.352 133.8 619.606 133.783L620.685 133.479C620.717 133.467 620.753 133.452 620.785 133.441C620.817 133.43 620.853 133.416 620.886 133.405L621.451 133.276C621.492 133.268 621.531 133.264 621.57 133.255C621.609 133.246 621.647 133.24 621.684 133.23L622.558 132.871C622.59 132.859 622.628 132.846 622.659 132.835C622.692 132.823 622.73 132.812 622.762 132.8L626.42 130.63C626.443 130.614 626.478 130.593 626.502 130.577L628.877 128.532C629.244 128.129 629.133 127.928 629.585 127.527C629.663 127.457 629.789 127.353 629.86 127.268L630.275 126.631C630.381 126.471 630.413 126.427 630.532 126.231C630.823 125.754 630.342 126.553 630.63 126.066C630.644 126.041 630.664 126.009 630.678 125.984C630.693 125.959 630.712 125.927 630.727 125.901L632.4 122.49L633.296 119.022C633.34 118.581 633.421 104.045 633.263 103.397C633.172 103.027 633.19 103.225 633.149 103.122L632.994 102.131C632.905 101.534 632.809 101.761 632.709 101.255C632.654 100.976 632.642 100.682 632.552 100.392L630.396 96.6529C630.381 96.6285 630.363 96.5952 630.347 96.5711L630.019 96.1082C630.003 96.0848 629.983 96.0519 629.967 96.0287L629.176 95.2211C629.089 95.123 629.034 95.0399 628.935 94.9326L626.54 92.9052C626.517 92.889 626.482 92.8679 626.459 92.8513L625.447 92.1126C624.596 91.6897 625.069 91.5002 624.169 91.4826V90.982C624.568 90.9742 624.353 91.0031 624.647 90.9011C625.485 90.6104 626.52 89.5596 626.786 89.3997C626.907 89.3269 626.894 89.3575 627.06 89.2653C627.293 89.1364 627.477 88.9789 627.653 88.7845L627.956 88.4247C627.975 88.4046 628.001 88.3758 628.02 88.3562L629.114 87.1887C629.132 87.1679 629.157 87.1385 629.176 87.118L630.496 85.3986C630.509 85.3707 630.524 85.3374 630.537 85.3097C630.55 85.2822 630.566 85.2492 630.58 85.2222C630.594 85.1952 630.61 85.1624 630.624 85.1361C630.638 85.1098 630.656 85.077 630.67 85.0513C630.69 85.0172 630.747 84.9199 630.769 84.8879C631.164 84.3115 631.391 84.1117 631.658 83.4154C631.67 83.3846 631.68 83.3511 631.692 83.3199L631.957 82.6771C631.969 82.6575 632.048 82.5356 632.059 82.5159L633.018 78.9775C633.107 78.393 633.307 78.5427 633.296 77.5949L633.291 64.6993C633.291 64.2245 633.358 62.9831 633.263 62.5965L633.007 61.3195C632.981 61.0076 633.038 61.3649 632.978 61.0941C632.89 60.6976 632.928 60.9525 632.869 60.8145C632.857 60.7861 632.837 60.7563 632.825 60.7282C632.812 60.6999 632.794 60.6695 632.782 60.6407L632.327 59.1625C632.252 58.9559 632.282 58.9806 632.194 58.7787L631.573 57.6971C631.559 57.6719 631.538 57.6406 631.524 57.6151C631.51 57.5892 631.491 57.5576 631.477 57.5312L631.244 56.9851C631.231 56.9569 631.216 56.924 631.203 56.8962L628.019 53.309C627.988 53.2845 627.898 53.2157 627.866 53.1927L626.679 52.2328C626.302 51.8296 625.862 51.6865 625.348 51.3993L624.711 50.9571C624.687 50.9413 624.653 50.9197 624.629 50.9044L624.113 50.6058C623.765 50.4232 624.296 50.6899 623.931 50.5155L621.43 49.4579C621.217 49.3988 621.184 49.4004 620.993 49.3411L619.504 48.8959C619.467 48.8871 619.43 48.8782 619.393 48.8686C619.357 48.8594 619.321 48.8469 619.286 48.837L617.611 48.5558C616.454 48.517 616.217 48.3035 615.486 48.2947C614.223 48.2793 612.028 48.1085 610.815 48.4672L608.45 48.6427C608.072 48.6834 607.754 48.6525 607.413 48.7333C607.377 48.7418 607.343 48.757 607.308 48.7667C607.274 48.7761 607.241 48.7938 607.208 48.8037L607.001 48.8727C606.688 48.9459 606.664 48.9031 606.371 48.9448L603.887 49.5172C603.853 49.5271 603.816 49.54 603.783 49.5507C603.75 49.5611 603.714 49.5758 603.681 49.5867C603.649 49.5977 603.613 49.6128 603.581 49.6241C603.449 49.6707 603.262 49.7392 603.177 49.7694C602.998 49.8329 603.153 49.7789 602.974 49.8415L601.225 50.5591C601.198 50.5728 601.162 50.5915 601.136 50.6056L600.963 50.7043C600.938 50.7189 600.904 50.7403 600.878 50.7551L596.949 53.5625C596.762 53.7255 596.557 53.8834 596.381 54.0645L596.194 54.2764C596.176 54.2966 596.152 54.3275 596.132 54.3471L593.34 58.5281C593.262 58.7088 593.299 58.6485 593.238 58.8145L592.973 59.5825C592.927 59.7905 592.959 59.7846 592.889 60.0097L592.736 60.3758C592.461 61.1958 592.735 62.2133 592.386 63.0723C592.036 63.9338 592.244 71.5855 592.244 72.9595C592.244 74.0989 592.15 76.8207 592.429 77.5522C592.716 78.3027 592.539 79.219 592.683 80.0833L593.217 81.7416C593.23 81.7697 593.244 81.8032 593.258 81.8312L593.871 83.2948C593.877 83.319 593.998 83.6818 593.999 83.6833L594.913 85.1338C595.162 85.5242 595.194 85.8081 595.59 86.1661C596.064 86.5949 596.105 87.0677 596.595 87.4116L598.94 89.607C599.324 89.9446 598.944 89.6463 599.274 89.8149L600.722 90.7959C601.065 91.0004 600.511 90.9136 601.223 90.982Z" fill="white"/>
<path fill-rule="evenodd" clip-rule="evenodd" d="M574.143 52.3088V132.784H583.407V48.9296L583.042 48.9847C583.011 48.9926 582.966 49.0044 582.933 49.014L582.528 49.1587C582.378 49.2124 582.354 49.2164 582.223 49.2665L579.658 50.2681C579.627 50.2799 579.589 50.2941 579.559 50.3064L577.236 51.271C575.952 51.8088 576.796 51.0133 575.409 51.9191C575.273 52.0082 575.435 51.9236 575.151 52.0678C575.124 52.0817 575.087 52.0991 575.059 52.1122C575.03 52.1253 574.994 52.1424 574.965 52.1546C574.935 52.1669 574.899 52.1836 574.868 52.1947C574.746 52.2376 574.899 52.2246 574.542 52.2841C574.366 52.3135 574.322 52.3088 574.143 52.3088Z" fill="white"/>
</g>
</g>
<defs>
<filter id="filter0_d_28_154" x="1.60001" y="0" width="791.382" height="223.8" filterUnits="userSpaceOnUse" color-interpolation-filters="sRGB">
<feFlood flood-opacity="0" result="BackgroundImageFix"/>
<feColorMatrix in="SourceAlpha" type="matrix" values="0 0 0 0 0 0 0 0 0 0 0 0 0 0 0 0 0 0 127 0" result="hardAlpha"/>
<feOffset dy="3"/>
<feGaussianBlur stdDeviation="4"/>
<feComposite in2="hardAlpha" operator="out"/>
<feColorMatrix type="matrix" values="0 0 0 0 0 0 0 0 0 0 0 0 0 0 0 0 0 0 0.25 0"/>
<feBlend mode="normal" in2="BackgroundImageFix" result="effect1_dropShadow_28_154"/>
<feBlend mode="normal" in="SourceGraphic" in2="effect1_dropShadow_28_154" result="shape"/>
</filter>
<filter id="filter1_d_28_154" x="5.60001" y="47.08" width="549.148" height="120.32" filterUnits="userSpaceOnUse" color-interpolation-filters="sRGB">
<feFlood flood-opacity="0" result="BackgroundImageFix"/>
<feColorMatrix in="SourceAlpha" type="matrix" values="0 0 0 0 0 0 0 0 0 0 0 0 0 0 0 0 0 0 127 0" result="hardAlpha"/>
<feOffset dy="4"/>
<feGaussianBlur stdDeviation="2"/>
<feComposite in2="hardAlpha" operator="out"/>
<feColorMatrix type="matrix" values="0 0 0 0 0 0 0 0 0 0 0 0 0 0 0 0 0 0 0.25 0"/>
<feBlend mode="normal" in2="BackgroundImageFix" result="effect1_dropShadow_28_154"/>
<feBlend mode="normal" in="SourceGraphic" in2="effect1_dropShadow_28_154" result="shape"/>
</filter>
<filter id="filter2_d_28_154" x="63.2" y="176" width="484.535" height="44.8" filterUnits="userSpaceOnUse" color-interpolation-filters="sRGB">
<feFlood flood-opacity="0" result="BackgroundImageFix"/>
<feColorMatrix in="SourceAlpha" type="matrix" values="0 0 0 0 0 0 0 0 0 0 0 0 0 0 0 0 0 0 127 0" result="hardAlpha"/>
<feOffset dy="4"/>
<feGaussianBlur stdDeviation="2"/>
<feComposite in2="hardAlpha" operator="out"/>
<feColorMatrix type="matrix" values="0 0 0 0 0 0 0 0 0 0 0 0 0 0 0 0 0 0 0.25 0"/>
<feBlend mode="normal" in2="BackgroundImageFix" result="effect1_dropShadow_28_154"/>
<feBlend mode="normal" in="SourceGraphic" in2="effect1_dropShadow_28_154" result="shape"/>
</filter>
<filter id="filter3_d_28_154" x="574" y="5" width="210.982" height="201.5" filterUnits="userSpaceOnUse" color-interpolation-filters="sRGB">
<feFlood flood-opacity="0" result="BackgroundImageFix"/>
<feColorMatrix in="SourceAlpha" type="matrix" values="0 0 0 0 0 0 0 0 0 0 0 0 0 0 0 0 0 0 127 0" result="hardAlpha"/>
<feOffset dy="0.5"/>
<feComposite in2="hardAlpha" operator="out"/>
<feColorMatrix type="matrix" values="0 0 0 0 1 0 0 0 0 1 0 0 0 0 1 0 0 0 1 0"/>
<feBlend mode="normal" in2="BackgroundImageFix" result="effect1_dropShadow_28_154"/>
<feBlend mode="normal" in="SourceGraphic" in2="effect1_dropShadow_28_154" result="shape"/>
</filter>
</defs>
</svg>
